<svg width="51" height="19" viewBox="0 0 51 19" fill="none" xmlns="http://www.w3.org/2000/svg">
<path d="M14.6881 18.3318C13.5564 18.331 12.7698 17.7598 12.486 16.872C12.2434 16.113 12.0051 15.3526 11.7695 14.5911C11.7428 14.5051 11.7089 14.4739 11.6166 14.4739C9.60955 14.4767 7.60272 14.4767 5.59563 14.4739C5.50164 14.4739 5.46947 14.5081 5.44379 14.5921C5.20369 15.3825 4.95636 16.1704 4.71626 16.9607C4.4617 17.799 3.64141 18.3649 2.7209 18.3303C1.38401 18.2802 0.488923 17.0049 0.909288 15.7266C1.23466 14.737 1.58596 13.7559 1.92604 12.771C2.69821 10.5348 3.47012 8.29862 4.24254 6.0624C4.59334 5.0464 4.9237 4.02241 5.30093 3.01613C5.80681 1.66727 6.79564 0.879897 8.22105 0.667969C9.66614 0.45305 11.0995 1.13645 11.8283 2.40129C12.0333 2.75683 12.1654 3.15825 12.3025 3.54844C12.8174 5.01299 13.321 6.48127 13.8282 7.94856C14.6918 10.4473 15.5542 12.9463 16.4187 15.4448C16.66 16.1422 16.6363 16.8124 16.1998 17.4292C15.7841 18.0164 15.2154 18.331 14.6881 18.3318ZM10.6497 11.0699C10.5136 10.6336 10.383 10.2187 10.2543 9.80305C9.91298 8.70103 9.56417 7.60125 9.23481 6.49573C9.06302 5.91954 8.92465 5.33312 8.77355 4.7507C8.7561 4.68338 8.7374 4.64149 8.65413 4.64074C8.46389 4.63875 8.46788 4.63526 8.41752 4.82574C8.24423 5.48372 8.08516 6.14618 7.88919 6.79767C7.50897 8.06126 7.10755 9.31861 6.71511 10.5787C6.66525 10.7388 6.61713 10.8993 6.56502 11.0701L10.6497 11.0699Z" fill="#B36CF2"/>
<path d="M32.6156 7.3745V7.19947C32.6156 5.56239 32.6174 3.92531 32.6149 2.28848C32.6136 1.45399 32.9874 0.829423 33.6815 0.394348C34.4818 -0.107048 35.5577 0.0418003 36.2476 0.729443C36.6791 1.15978 36.8866 1.67963 36.8863 2.28699C36.8856 6.96959 36.8821 11.6522 36.8888 16.3348C36.8903 17.4373 36.0513 18.2077 35.2191 18.3157C34.0839 18.4633 33.1684 17.7128 32.9774 16.8714C32.9739 16.8564 32.9652 16.8429 32.9617 16.835C32.8188 16.9701 32.6787 17.1027 32.5383 17.2354C31.7883 17.944 30.9057 18.3396 29.8693 18.4017C29.1166 18.4466 28.3748 18.4249 27.6525 18.1846C26.5819 17.8283 25.7377 17.171 25.0972 16.2485C24.492 15.3771 24.1328 14.4063 23.9595 13.3646C23.783 12.3037 23.7672 11.2388 23.9328 10.1759C24.0984 9.11281 24.43 8.10877 25.0904 7.24036C25.8843 6.19718 26.9275 5.58159 28.2377 5.43175C28.9971 5.34498 29.7469 5.37016 30.4801 5.60752C31.3747 5.89724 32.0387 6.47169 32.5204 7.26903C32.5376 7.29746 32.5545 7.32588 32.573 7.35331C32.5765 7.35879 32.5857 7.36029 32.6156 7.3745ZM32.7358 11.7559C32.7246 11.5941 32.7131 11.27 32.6777 10.9486C32.6144 10.3744 32.4755 9.82214 32.1591 9.32623C31.46 8.23044 29.9565 8.02948 29.0248 8.9101C28.5805 9.32997 28.3529 9.86353 28.2397 10.4494C28.0572 11.3934 28.0604 12.3416 28.2302 13.2865C28.3352 13.8705 28.5456 14.411 28.943 14.8683C29.601 15.625 30.6973 15.7913 31.5268 15.246C31.9704 14.9543 32.2553 14.5364 32.4309 14.0417C32.6747 13.3549 32.7243 12.639 32.7358 11.7559Z" fill="#B36CF2"/>
<path d="M46.3196 10.6202C46.3191 10.1809 46.3064 9.76175 46.1994 9.35286C46.0575 8.81057 45.6968 8.49916 45.1525 8.39469C44.786 8.32413 44.4182 8.32114 44.0505 8.39095C43.6121 8.47398 43.2514 8.68117 42.9821 9.04245C42.7567 9.34513 42.4799 9.58323 42.1164 9.70765C41.1371 10.0425 39.9745 9.33815 39.8099 8.31341C39.7122 7.70481 39.8234 7.14906 40.2552 6.69553C40.4183 6.52449 40.6257 6.38761 40.8314 6.26669C41.6781 5.76853 42.6024 5.502 43.5732 5.38283C44.5247 5.26589 45.4726 5.30404 46.4151 5.46236C47.1788 5.59076 47.9038 5.83286 48.562 6.25372C49.386 6.78055 49.8892 7.53701 50.1612 8.46326C50.4008 9.27856 50.4272 10.1141 50.4252 10.9555C50.4215 12.6088 50.429 14.2621 50.4389 15.9154C50.4409 16.2605 50.4629 16.6033 50.3567 16.9396C50.0909 17.7816 49.2706 18.362 48.3833 18.3311C47.473 18.2992 46.7255 17.6916 46.516 16.8132C46.5048 16.7661 46.4924 16.7192 46.4764 16.6559C46.445 16.6895 46.4213 16.7105 46.4031 16.7352C45.6604 17.7439 44.6458 18.2616 43.4162 18.3982C42.6542 18.483 41.8985 18.4742 41.1543 18.27C39.9657 17.9439 39.0497 17.2812 38.5543 16.1201C38.2855 15.49 38.2459 14.8233 38.3025 14.1497C38.3481 13.6071 38.4723 13.0848 38.7443 12.6053C39.0941 11.989 39.6232 11.5886 40.2692 11.325C41.1411 10.9695 42.0508 10.775 42.9833 10.6691C44.0397 10.5489 45.0979 10.5686 46.1565 10.6199C46.2051 10.6222 46.2547 10.6202 46.3196 10.6202ZM45.3462 12.8629C45.3457 12.8519 45.3455 12.8409 45.345 12.8297C44.9722 12.8484 44.5982 12.8552 44.2267 12.8888C43.8445 12.9235 43.473 13.0115 43.1337 13.204C42.6662 13.4692 42.4485 13.8769 42.4545 14.4072C42.46 14.9118 42.6821 15.2906 43.1297 15.5312C43.4925 15.7262 43.8822 15.7493 44.2813 15.705C44.8124 15.6459 45.2754 15.4437 45.6387 15.0432C46.1782 14.4486 46.3567 13.7305 46.3453 12.9484C46.344 12.8704 46.3054 12.8621 46.2433 12.8624C45.9441 12.8639 45.6454 12.8629 45.3462 12.8629Z" fill="#B36CF2"/>
<path d="M17.9865 11.8984C17.9865 10.4528 17.9845 9.00749 17.9873 7.56189C17.9893 6.50649 18.8367 5.57002 19.8804 5.46256C21.1148 5.3354 22.1879 6.26589 22.2465 7.51502C22.2488 7.56065 22.2493 7.60627 22.2493 7.65215C22.2493 10.481 22.2498 13.3096 22.2493 16.1385C22.2493 17.1081 21.6783 17.9214 20.7877 18.2264C19.4416 18.6874 17.9923 17.6594 17.988 16.2355C17.9838 14.7899 17.9868 13.344 17.9865 11.8984Z" fill="#B36CF2"/>
<path d="M17.3705 3.85664C17.1613 3.8357 16.9252 3.8367 16.7013 3.78509C15.9244 3.60607 15.3694 2.87754 15.3649 2.058C15.3604 1.25043 15.9077 0.49547 16.6935 0.347369C17.2982 0.233427 17.928 0.186304 18.5061 0.506689C19.1721 0.875693 19.5122 1.57406 19.4055 2.33326C19.3072 3.03212 18.7535 3.64098 18.0506 3.79556C17.8382 3.84243 17.6138 3.83645 17.3705 3.85664Z" fill="#B36CF2"/>
<path d="M22.8363 0.280879C23.1794 0.279134 23.5155 0.295091 23.8351 0.445435C24.5651 0.789007 24.9638 1.53599 24.8436 2.35179C24.7352 3.0873 24.1104 3.73331 23.3641 3.81434C22.877 3.86745 22.3766 3.90634 21.9006 3.71137C21.179 3.41567 20.735 2.65971 20.8168 1.86834C20.8963 1.09718 21.5002 0.443191 22.2654 0.315286C22.4524 0.284121 22.6461 0.291102 22.8363 0.280879Z" fill="#B36CF2"/>
</svg>
