<svg width="71" height="19" viewBox="0 0 71 19" fill="none" xmlns="http://www.w3.org/2000/svg">
<path d="M61.9205 5.63768C63.5753 5.63768 65.2997 5.60894 67.0233 5.65249C67.6808 5.66904 68.3541 5.78226 68.9846 5.97212C69.8198 6.22382 70.3224 6.8535 70.5384 7.70527C71.1053 9.94791 69.7693 11.9223 67.4797 12.2193C67.3107 12.2411 67.14 12.2567 66.8796 12.2846C67.7644 14.3688 68.6275 16.4006 69.4906 18.4325H65.9416C65.8223 18.0118 65.7169 17.5607 65.568 17.1252C65.075 15.6847 64.5707 14.2486 64.0552 12.8159C64.0133 12.7001 63.8496 12.6286 63.7425 12.5363C63.6615 12.6504 63.5317 12.7549 63.5073 12.8795C63.1659 14.6013 62.8385 16.3257 62.5084 18.0502C62.484 18.1765 62.4613 18.3036 62.4387 18.4273H59.2346C60.1229 14.1998 61.0165 9.94269 61.9205 5.63768ZM63.7529 11.4807C64.2145 11.4807 64.5768 11.5043 64.9348 11.4764C66.6836 11.3431 67.7601 9.95227 67.4675 8.21651C67.376 7.6713 67.0903 7.24281 66.5538 7.10259C66.0409 6.96846 65.5 6.93189 64.9688 6.8866C64.8851 6.87963 64.7266 7.03727 64.7031 7.14091C64.38 8.56749 64.0743 9.99843 63.7529 11.4807Z" fill="#B36CF2"/>
<path d="M54.2964 12.2846C55.1874 14.3775 56.0478 16.3989 56.9127 18.4308H53.3741C53.3453 18.3437 53.3062 18.2235 53.2661 18.1033C52.68 16.3588 52.0973 14.6135 51.4981 12.8734C51.452 12.7401 51.2865 12.6487 51.1759 12.5381C51.0888 12.6652 50.9503 12.781 50.9224 12.9204C50.5497 14.752 50.1935 16.587 49.8312 18.429H46.6566C47.5432 14.2059 48.4342 9.96011 49.3373 5.65772C49.4697 5.66556 49.6962 5.69168 49.9226 5.68994C51.1558 5.67949 52.3882 5.65511 53.6206 5.64901C54.171 5.6464 54.7249 5.64204 55.2718 5.69604C57.3595 5.90071 58.3863 7.27939 58.0161 9.34785C57.7261 10.9669 56.6079 11.9998 54.9026 12.2202C54.7319 12.2419 54.5603 12.2567 54.2964 12.2846ZM51.1976 11.4755C51.674 11.4755 52.0503 11.5008 52.4222 11.4712C53.8688 11.3553 54.8085 10.393 54.9182 8.93851C55.0123 7.69308 54.4837 7.05382 53.2469 6.91882C52.5444 6.84218 52.1118 7.14381 51.9493 7.82372C51.9362 7.88033 51.917 7.9352 51.9057 7.99181C51.6723 9.13882 51.4398 10.2858 51.1976 11.4755Z" fill="#B36CF2"/>
<path d="M19.8381 0.122088C19.8381 0.346787 19.8381 0.505297 19.8381 0.662935C19.8381 4.37832 19.8433 8.09458 19.8267 11.81C19.8259 12.0564 19.7179 12.3491 19.562 12.5407C18.6501 13.665 17.7095 14.7668 16.7184 15.9477V3.28879H2.8375C3.11097 3.03099 3.28603 2.86464 3.46196 2.70091C4.06725 2.13655 4.7161 1.61225 5.26652 0.999114C5.88488 0.309338 6.57553 0.0846378 7.50743 0.0977017C11.4249 0.153441 15.3441 0.121217 19.2624 0.121217L19.8381 0.122088Z" fill="#B36CF2"/>
<path d="M35.0523 18.4308C35.9538 14.1972 36.8578 9.95053 37.7749 5.64204C39.5185 5.64204 41.3718 5.60285 43.2225 5.65249C45.2893 5.70823 46.3379 6.90924 46.2238 8.97596C46.1201 10.8537 44.9836 12.2637 43.1764 12.7619C42.0407 13.0746 40.8867 13.0998 39.724 12.9962C39.5969 12.9848 39.4697 12.9761 39.2668 12.9605C38.9175 14.792 38.5718 16.6088 38.2243 18.4316L35.0523 18.4308ZM39.5333 11.8134C39.9565 11.8134 40.2875 11.823 40.6176 11.8117C41.6505 11.776 42.3777 11.297 42.7357 10.3111C42.8437 10.0124 42.9447 9.70667 43.0031 9.39575C43.3479 7.56854 42.6625 6.78731 40.8083 6.87702C40.7665 6.87876 40.7256 6.89879 40.6167 6.92927C40.2666 8.50827 39.9095 10.1151 39.5333 11.8134Z" fill="#B36CF2"/>
<path d="M30.2492 5.54449C31.3143 9.86343 32.3699 14.1414 33.428 18.4308H29.9652C29.8755 17.842 29.785 17.2176 29.6822 16.5948C29.6038 16.1228 29.4967 15.6551 29.4279 15.1813C29.3913 14.934 29.2894 14.8295 29.0359 14.8321C27.8611 14.8434 26.6853 14.8338 25.5104 14.8617C25.3763 14.8652 25.1882 15.035 25.1237 15.1735C24.6682 16.1446 24.2284 17.1235 23.8078 18.1103C23.6954 18.3733 23.5892 18.4726 23.273 18.4447C22.6991 18.3933 22.1173 18.4299 21.5076 18.4299C21.5503 18.348 21.5912 18.267 21.6348 18.1878C23.8992 14.0726 26.1671 9.95924 28.4193 5.83713C28.5535 5.5924 28.6693 5.51488 28.9419 5.53578C29.3878 5.56975 29.8372 5.54536 30.2474 5.54536L30.2492 5.54449ZM25.952 13.4665H29.0995C28.7747 12.0921 28.4664 10.7901 28.1311 9.3731C27.3847 10.7762 26.6897 12.0808 25.952 13.4665Z" fill="#B36CF2"/>
<path d="M14.2232 8.82354H0.458121V5.74568H14.224L14.2232 8.82354Z" fill="#B36CF2"/>
<path d="M14.2432 10.5271V13.5971H0.453766V10.5271H14.2432Z" fill="#B36CF2"/>
<path d="M0.453766 18.3864V15.3172H14.2275V18.3864H0.453766Z" fill="#B36CF2"/>
</svg>
