<svg width="82" height="23" viewBox="0 0 82 23" fill="none" xmlns="http://www.w3.org/2000/svg">
<path d="M0.46463 8.52372C0.500353 8.53448 0.53675 8.54523 0.593367 8.56204C0.595389 8.49415 0.602803 8.43028 0.598085 8.3671C0.568429 7.96444 0.678293 7.59606 0.858256 7.23978C1.00047 6.95812 1.21481 6.74167 1.44061 6.53126C1.70549 6.28456 2.02767 6.15348 2.36738 6.04256C2.74281 5.91954 3.127 5.8987 3.51455 5.89803C5.21105 5.89467 6.90755 5.89803 8.60338 5.89534C9.20393 5.89467 9.7883 5.98475 10.3545 6.18373C10.7333 6.3175 11.0871 6.50303 11.3931 6.76049C11.6452 6.97291 11.8879 7.20079 12.1062 7.44683C12.4055 7.78428 12.6178 8.18022 12.7553 8.6091C12.8402 8.87395 12.909 9.14553 12.9636 9.41845C13.0485 9.84732 12.9892 10.2728 12.9144 10.699C12.8436 11.1003 12.6684 11.4627 12.5174 11.8344C12.4864 11.911 12.4406 11.9836 12.3927 12.0522C11.9418 12.7076 11.3938 13.2609 10.6699 13.6151C10.4812 13.7079 10.2689 13.7556 10.0633 13.8094C9.89547 13.8538 9.72225 13.8766 9.55172 13.9109C9.516 13.9183 9.48162 13.9344 9.42366 13.9546C9.49915 14.0191 9.57059 14.0144 9.63867 14.0211C9.9959 14.0561 10.3551 14.0803 10.7104 14.1287C11.505 14.2376 12.2262 14.5307 12.8598 15.0234C12.9777 15.1155 13.0701 15.2392 13.1779 15.3447C13.4617 15.6217 13.6821 15.9437 13.8614 16.2939C13.9915 16.548 14.0744 16.8203 14.1249 17.1033C14.1795 17.4105 14.2746 17.711 14.2813 18.0262C14.2914 18.525 14.2449 19.0124 14.1034 19.4984C13.9584 19.9965 13.7299 20.4442 13.4138 20.8475C12.787 21.6481 11.9735 22.1631 10.9746 22.3815C10.9092 22.3957 10.8411 22.3997 10.7737 22.401C10.5553 22.4057 10.3363 22.3862 10.1233 22.4595C10.0775 22.475 10.0229 22.4649 9.97231 22.4649C7.81545 22.4649 5.6586 22.4649 3.50175 22.4635C3.41345 22.4635 3.32516 22.442 3.23619 22.432C3.15261 22.4219 3.06903 22.4078 2.98545 22.4057C2.20629 22.3829 1.57878 22.0616 1.10292 21.4512C0.8623 21.1433 0.689078 20.7985 0.623698 20.4113C0.596063 20.2472 0.606174 20.0778 0.598759 19.9105C0.597411 19.8829 0.595389 19.8553 0.592693 19.8163C0.546186 19.8291 0.505071 19.8405 0.46463 19.852C0.46463 16.0754 0.46463 12.2989 0.46463 8.52238V8.52372Z" fill="#B36CF2"/>
<path d="M57.8073 13.9882C57.9555 14.0285 58.1072 14.0621 58.2609 14.0595C58.6221 14.0541 58.9726 14.1119 59.3238 14.1899C59.5752 14.2463 59.828 14.292 60.0713 14.3841C60.473 14.5361 60.8457 14.729 61.18 15.0033C61.4766 15.2459 61.7617 15.4953 61.9707 15.8187C62.2585 16.2643 62.4519 16.745 62.5597 17.2673C62.6635 17.7715 62.6999 18.2763 62.6379 18.7825C62.5483 19.5125 62.3292 20.1988 61.8399 20.7756C61.5905 21.07 61.3647 21.3833 61.0493 21.6179C60.6819 21.8915 60.2822 22.0945 59.8489 22.2444C59.3784 22.4071 58.8978 22.4467 58.4051 22.4293C58.2723 22.4246 58.1389 22.4642 58.0054 22.4642C55.9611 22.4669 53.9168 22.473 51.8725 22.4595C51.485 22.4568 51.0819 22.4649 50.7146 22.2989C50.4551 22.1812 50.1727 22.0831 49.9556 21.9083C49.5135 21.552 49.1765 21.1063 49.037 20.539C48.9702 20.2667 48.9318 19.9931 48.9318 19.7115C48.9345 16.0808 48.9338 12.4502 48.9332 8.8195C48.9332 8.47263 48.9365 8.12577 49.0343 7.78966C49.3308 6.7652 50.0123 6.16961 51.0644 5.97534C51.4317 5.90744 51.7997 5.89467 52.1705 5.89534C53.687 5.89669 55.2029 5.89534 56.7194 5.89669C57.1683 5.89669 57.6185 5.89669 58.062 5.98139C58.579 6.07953 59.0589 6.26506 59.5071 6.54941C59.9412 6.82435 60.3011 7.17122 60.6037 7.57657C60.7655 7.79436 60.9084 8.02494 61.0122 8.28441C61.1099 8.52843 61.2191 8.76707 61.2697 9.02385C61.3688 9.52331 61.4409 10.0315 61.3472 10.5363C61.2171 11.2368 60.9515 11.8862 60.4743 12.432C60.2614 12.676 60.0652 12.9355 59.8044 13.1365C59.5145 13.3603 59.2079 13.5566 58.8709 13.6991C58.734 13.757 58.5804 13.7791 58.4327 13.8094C58.2845 13.8396 58.1335 13.8571 57.9852 13.8874C57.9225 13.9001 57.8639 13.9311 57.8032 13.9532C57.8046 13.9647 57.8052 13.9761 57.8066 13.9882H57.8073Z" fill="#B36CF2"/>
<path d="M25.1073 11.6482C25.1936 11.6563 25.2799 11.667 25.3662 11.6717C25.6459 11.6872 25.9303 11.6751 26.2046 11.7201C26.8301 11.823 27.3734 12.0744 27.7765 12.598C28.1148 13.0384 28.284 13.5338 28.3123 14.0682C28.3325 14.4433 28.3042 14.8285 28.1148 15.1767C28.0508 15.2943 28.0016 15.42 27.9375 15.5377C27.7677 15.8502 27.5244 16.0916 27.2083 16.2596C27.1537 16.2885 27.0991 16.3174 27.0472 16.3497C26.6731 16.5803 26.2626 16.665 25.8279 16.667C25.6203 16.6677 25.4133 16.6865 25.2064 16.6993C25.1768 16.7013 25.1485 16.7174 25.0831 16.7389C25.1478 16.7631 25.1747 16.7786 25.2031 16.7819C25.4477 16.8122 25.6931 16.8424 25.9384 16.8693C26.2538 16.9043 26.5518 16.9997 26.8382 17.1315C26.9198 17.1685 26.9966 17.2162 27.0761 17.2565C27.4374 17.4407 27.6962 17.7257 27.9119 18.0619C28.1937 18.5028 28.2732 18.9929 28.2948 19.4997C28.3177 20.0328 28.2193 20.5457 28.0157 21.0364C27.9571 21.1789 27.8614 21.3073 27.7717 21.4351C27.3902 21.9809 26.853 22.2706 26.2006 22.3674C26.1507 22.3748 26.0982 22.3775 26.0516 22.395C25.8191 22.4844 25.5765 22.4635 25.3358 22.4635C23.3138 22.4635 21.2917 22.4689 19.2704 22.4595C18.8983 22.4575 18.5202 22.438 18.1582 22.3325C18.0147 22.2901 17.8725 22.233 17.7417 22.1604C17.5361 22.0468 17.3407 21.9157 17.1425 21.7886C17.0913 21.7557 17.0387 21.7181 17.0009 21.671C16.5723 21.1406 16.273 20.5565 16.2723 19.8574C16.2696 16.2879 16.269 12.7184 16.2669 9.14956C16.2669 8.9042 16.2501 8.65749 16.2643 8.41281C16.2744 8.24273 16.3188 8.07334 16.3579 7.90595C16.3869 7.78159 16.4375 7.66194 16.4671 7.5369C16.5197 7.3144 16.6343 7.1329 16.7758 6.95274C16.9052 6.78805 17.0555 6.65092 17.2059 6.50975C17.466 6.26574 17.7842 6.12928 18.1225 6.03584C18.5647 5.91349 19.0176 5.89803 19.4746 5.89938C21.2378 5.90408 23.0017 5.90139 24.7649 5.90139C24.9786 5.90139 25.1923 5.89064 25.4053 5.8987C25.8272 5.91484 26.2471 5.96458 26.6461 6.10239C27.273 6.31817 27.701 6.7531 27.9935 7.34129C28.16 7.67605 28.1957 8.03367 28.2644 8.38928C28.3494 8.82958 28.2961 9.26048 28.1768 9.68129C28.0083 10.2749 27.678 10.7575 27.1375 11.0903C26.6792 11.3719 26.1757 11.4788 25.652 11.5299C25.507 11.544 25.3608 11.548 25.2159 11.5615C25.1774 11.5648 25.1404 11.5877 25.1033 11.6018C25.1047 11.6166 25.1067 11.6321 25.108 11.6469L25.1073 11.6482Z" fill="#B36CF2"/>
<path d="M30.2622 20.0093C30.238 19.6073 30.3498 19.2396 30.5365 18.888C30.67 18.6366 30.7853 18.3758 30.9147 18.1224C31.0818 17.7936 31.2611 17.471 31.4249 17.1409C31.6285 16.7309 31.8165 16.3134 32.0194 15.9027C32.2472 15.4422 32.4851 14.9864 32.717 14.528C32.8127 14.3384 32.903 14.1462 32.9974 13.9566C33.2434 13.4619 33.4935 12.9691 33.7368 12.4737C34.0273 11.8821 34.3117 11.2879 34.6015 10.6957C34.7606 10.3696 34.9049 10.0335 35.0916 9.72364C35.3032 9.37274 35.4515 8.99293 35.6402 8.63195C35.8943 8.14728 36.1329 7.65253 36.4146 7.18399C36.8494 6.46068 37.5066 6.03987 38.3457 5.92694C38.7737 5.86913 39.195 5.93769 39.5933 6.11516C39.7362 6.17902 39.8899 6.22944 40.0152 6.31884C40.4554 6.63142 40.8086 7.024 41.0485 7.51136C41.2561 7.93217 41.461 8.35432 41.672 8.77379C42.1782 9.78212 42.687 10.7891 43.1939 11.7981C43.2714 11.9527 43.3361 12.114 43.4143 12.268C43.6967 12.8266 43.9859 13.3812 44.2649 13.9411C44.544 14.5011 44.8149 15.0651 45.0872 15.6284C45.2571 15.98 45.4175 16.3369 45.5927 16.6858C45.7107 16.9204 45.8569 17.1402 45.9729 17.3755C46.2681 17.9772 46.5653 18.5788 46.839 19.1905C47.0129 19.5804 47.0466 19.9958 46.9596 20.42C46.9091 20.6667 46.8619 20.9121 46.7372 21.1352C46.3638 21.8014 45.8071 22.2263 45.0582 22.395C44.8008 22.4528 44.5413 22.5032 44.2757 22.4326C44.244 22.4239 44.2083 22.4246 44.1753 22.4266C43.7877 22.4528 43.4615 22.3049 43.169 22.071C42.8886 21.8465 42.6324 21.5991 42.4336 21.2946C41.9632 20.5733 41.4853 19.8567 41.0047 19.1421C40.7027 18.6931 40.7398 18.7509 40.272 18.7495C39.3176 18.7468 38.3626 18.7542 37.4081 18.7549C37.1891 18.7549 36.97 18.7516 36.751 18.7415C36.5879 18.7341 36.4827 18.7973 36.3931 18.9371C35.8006 19.8661 35.196 20.7877 34.5288 21.6656C34.1992 22.0992 33.757 22.3567 33.2097 22.4239C33.0547 22.4427 32.899 22.4562 32.7433 22.4649C32.6887 22.4683 32.6327 22.4528 32.5781 22.4441C32.5343 22.4367 32.4905 22.4185 32.4467 22.4178C31.9702 22.4125 31.5664 22.2202 31.2005 21.9365C30.6976 21.5466 30.3741 21.0465 30.2791 20.4119C30.269 20.3461 30.2663 20.2788 30.2636 20.2116C30.2609 20.1444 30.2636 20.0778 30.2636 20.0106L30.2622 20.0093Z" fill="#B36CF2"/>
<path d="M81.3129 20.0046C81.3486 20.6022 81.1734 21.1339 80.7777 21.5816C80.401 22.0071 79.9359 22.3056 79.3663 22.4037C79.121 22.4461 78.8709 22.4851 78.6162 22.4272C78.4591 22.3916 78.2906 22.4051 78.1329 22.3715C77.9988 22.3426 77.864 22.2921 77.744 22.2249C77.4468 22.0582 77.1974 21.829 77.0019 21.5534C76.6063 20.9974 76.2227 20.4334 75.8372 19.8701C75.6161 19.5468 75.3977 19.2221 75.1847 18.8934C75.1126 18.7818 75.0237 18.7394 74.8922 18.7401C73.6062 18.7442 72.3202 18.7448 71.0342 18.7428C70.8926 18.7428 70.8043 18.806 70.7315 18.9169C70.4532 19.3424 70.1728 19.7679 69.891 20.1914C69.6558 20.545 69.4226 20.9006 69.1772 21.2475C69.0357 21.4478 68.88 21.6401 68.7182 21.8249C68.4095 22.1772 68.0051 22.356 67.5481 22.4266C67.416 22.4467 67.2812 22.4615 67.1478 22.4629C67.0487 22.4642 66.9483 22.4434 66.8492 22.4272C66.6679 22.3977 66.4872 22.3654 66.3073 22.3304C66.2473 22.3183 66.1873 22.2989 66.1314 22.274C65.6157 22.0441 65.1938 21.7053 64.9067 21.2152C64.6364 20.7541 64.5636 20.254 64.6189 19.7283C64.6505 19.4291 64.7463 19.1549 64.8838 18.888C65.0927 18.4813 65.2855 18.0659 65.4863 17.6552C65.5301 17.5651 65.58 17.4777 65.6279 17.3896C65.6737 17.3063 65.7303 17.2276 65.766 17.1409C66.0336 16.4942 66.3936 15.8939 66.6955 15.2647C66.7973 15.053 66.8957 14.8406 67.0002 14.6302C67.2549 14.1146 67.5124 13.6003 67.7679 13.0847C68.0408 12.5342 68.3105 11.983 68.5848 11.4331C68.8867 10.8281 69.1927 10.2258 69.4947 9.62146C69.6167 9.37744 69.7293 9.12872 69.854 8.88605C70.1552 8.29987 70.4498 7.71034 70.7713 7.13492C70.869 6.96014 71.0005 6.79141 71.1703 6.66571C71.3725 6.5158 71.57 6.35917 71.7742 6.21196C71.9852 6.06138 72.2353 6.01298 72.4833 5.96458C73.2436 5.81602 73.9344 5.96996 74.537 6.45866C74.8848 6.74032 75.1585 7.08988 75.3654 7.4838C75.5865 7.90394 75.784 8.33617 75.9976 8.75967C76.2625 9.28333 76.5335 9.80363 76.8017 10.3253C76.9042 10.5242 77.008 10.7219 77.1057 10.9229C77.4171 11.5601 77.7238 12.2001 78.0372 12.8367C78.3041 13.3778 78.5791 13.9143 78.848 14.454C79.1446 15.049 79.4378 15.6459 79.735 16.2401C80.1226 17.0139 80.5176 17.7836 80.9004 18.56C81.0285 18.8201 81.1296 19.093 81.2415 19.3606C81.3284 19.5683 81.3041 19.7888 81.3109 20.0052L81.3129 20.0046Z" fill="#B36CF2"/>
<path d="M19.1982 2.63844C19.1861 2.21023 19.4631 1.76321 19.8999 1.3955C19.9208 1.37802 19.9451 1.36256 19.9707 1.35248C20.6191 1.10309 21.2675 0.853021 21.9172 0.606988C22.2846 0.467838 22.6566 0.342806 23.0226 0.200967C23.3879 0.059801 23.7661 0.0369455 24.13 0.149878C24.7346 0.336756 25.1431 0.723954 25.3163 1.35987C25.5192 2.10268 25.1073 3.03034 24.2817 3.34965C24.0255 3.44913 23.7647 3.53585 23.5072 3.63198C22.9296 3.84709 22.3533 4.06825 21.7737 4.27933C21.5843 4.34789 21.3888 4.4057 21.1913 4.44402C20.6487 4.54889 20.1695 4.40906 19.757 4.04338C19.3836 3.71264 19.1949 3.29923 19.1982 2.63911V2.63844Z" fill="#B36CF2"/>
</svg>
