<svg width="272" height="272" viewBox="0 0 272 272" fill="none" xmlns="http://www.w3.org/2000/svg">
<path d="M110.42 33.1796C123.055 16.5174 148.103 16.5174 160.737 33.1796C167.631 42.271 178.893 46.936 190.197 45.3819C210.912 42.5337 228.624 60.2458 225.776 80.9614C224.222 92.2645 228.887 103.527 237.978 110.42C254.64 123.055 254.64 148.103 237.978 160.737C228.887 167.631 224.222 178.893 225.776 190.196C228.624 210.912 210.912 228.624 190.197 225.776C178.893 224.222 167.631 228.887 160.737 237.978C148.103 254.64 123.055 254.64 110.42 237.978C103.527 228.887 92.2645 224.222 80.9614 225.776C60.2458 228.624 42.5337 210.912 45.3819 190.196C46.936 178.893 42.271 167.631 33.1796 160.737C16.5174 148.103 16.5174 123.055 33.1796 110.42C42.271 103.527 46.936 92.2645 45.3819 80.9614C42.5337 60.2458 60.2458 42.5337 80.9614 45.3819C92.2645 46.936 103.527 42.271 110.42 33.1796Z" fill="url(#paint0_radial_743_27230)"/>
<path d="M84.3255 128.605C84.1762 129.607 83.8029 130.535 83.2055 131.389C82.6295 132.242 81.9362 132.882 81.1255 133.309C82.1709 133.671 82.9602 134.397 83.4935 135.485C84.0269 136.551 84.2082 137.746 84.0375 139.069C83.7815 140.797 82.9815 142.226 81.6375 143.357C80.3149 144.487 78.7682 145.053 76.9975 145.053H65.6695L68.7735 122.973H79.2695C80.9335 122.973 82.2455 123.506 83.2055 124.573C84.1655 125.639 84.5389 126.983 84.3255 128.605ZM78.7255 131.101C79.2802 130.631 79.6002 130.055 79.6855 129.373C79.7709 128.69 79.6109 128.114 79.2055 127.645C78.8215 127.175 78.2882 126.941 77.6055 126.941H72.5175L71.8135 131.805H76.9335C77.5949 131.805 78.1922 131.57 78.7255 131.101ZM79.5895 138.301C79.6962 137.533 79.5255 136.882 79.0775 136.349C78.6295 135.815 78.0215 135.549 77.2535 135.549H71.3015L70.5015 141.085H76.4535C77.2429 141.085 77.9362 140.818 78.5335 140.285C79.1309 139.751 79.4829 139.09 79.5895 138.301ZM91.9318 131.229C93.5318 129.394 95.3878 128.477 97.4998 128.477L96.8918 132.765C95.3345 132.765 94.0545 133.127 93.0518 133.853C92.0491 134.578 91.4091 135.57 91.1318 136.829L89.9798 145.053H85.8198L88.1238 128.733H92.2838L91.9318 131.229ZM114.412 139.645C114.284 140.562 114.679 141.021 115.596 141.021H115.916L115.34 145.053H114.156C111.852 145.053 110.519 144.199 110.156 142.493C108.514 144.455 106.498 145.437 104.108 145.437C101.847 145.437 100.066 144.626 98.7643 143.005C97.4843 141.362 97.015 139.325 97.3563 136.893C97.6976 134.461 98.743 132.434 100.492 130.813C102.242 129.17 104.258 128.349 106.54 128.349C108.716 128.349 110.359 129.191 111.468 130.877L111.788 128.733H115.948L114.412 139.645ZM105.484 141.405C106.786 141.405 107.927 140.978 108.908 140.125C109.89 139.25 110.466 138.173 110.636 136.893C110.807 135.613 110.519 134.546 109.772 133.693C109.047 132.818 108.044 132.381 106.764 132.381C105.484 132.381 104.354 132.818 103.372 133.693C102.391 134.546 101.815 135.613 101.644 136.893C101.474 138.173 101.751 139.25 102.476 140.125C103.202 140.978 104.204 141.405 105.484 141.405ZM135.515 141.021H135.867L135.291 145.053H134.107C130.971 145.053 129.616 143.549 130.043 140.541L130.683 136.029C130.832 134.919 130.63 134.034 130.075 133.373C129.52 132.711 128.699 132.381 127.611 132.381C126.544 132.381 125.616 132.69 124.827 133.309C124.059 133.906 123.558 134.706 123.323 135.709L122.011 145.053H117.851L120.155 128.733H124.315L124.027 130.717C125.563 129.138 127.408 128.349 129.563 128.349C131.483 128.349 132.934 128.925 133.915 130.077C134.918 131.229 135.28 132.765 135.003 134.685L134.331 139.645C134.224 140.562 134.619 141.021 135.515 141.021ZM154.944 139.645C154.816 140.562 155.21 141.021 156.128 141.021H156.448L155.872 145.053H154.688C152.384 145.053 151.05 144.199 150.688 142.493C149.045 144.455 147.029 145.437 144.64 145.437C142.378 145.437 140.597 144.626 139.296 143.005C138.016 141.362 137.546 139.325 137.888 136.893C138.229 134.461 139.274 132.434 141.024 130.813C142.773 129.17 144.789 128.349 147.072 128.349C149.248 128.349 150.89 129.191 152 130.877L153.248 122.013H157.408L154.944 139.645ZM143.008 140.125C143.733 140.978 144.736 141.405 146.016 141.405C147.296 141.405 148.416 140.989 149.376 140.157C150.336 139.325 150.922 138.279 151.136 137.021L151.168 136.829C151.317 135.549 151.029 134.493 150.304 133.661C149.578 132.807 148.576 132.381 147.296 132.381C146.016 132.381 144.885 132.818 143.904 133.693C142.922 134.546 142.346 135.613 142.176 136.893C142.005 138.173 142.282 139.25 143.008 140.125ZM165.165 125.597C164.61 126.087 163.959 126.333 163.213 126.333C162.466 126.333 161.879 126.087 161.453 125.597C161.026 125.085 160.866 124.466 160.973 123.741C161.079 122.994 161.421 122.375 161.997 121.885C162.573 121.394 163.223 121.149 163.949 121.149C164.695 121.149 165.282 121.405 165.709 121.917C166.135 122.407 166.295 123.015 166.189 123.741C166.082 124.487 165.741 125.106 165.165 125.597ZM158.509 145.053L160.813 128.733H164.973L162.669 145.053H158.509ZM184.359 141.021H184.711L184.135 145.053H182.951C179.815 145.053 178.46 143.549 178.887 140.541L179.527 136.029C179.676 134.919 179.473 134.034 178.919 133.373C178.364 132.711 177.543 132.381 176.455 132.381C175.388 132.381 174.46 132.69 173.671 133.309C172.903 133.906 172.401 134.706 172.167 135.709L170.855 145.053H166.695L168.999 128.733H173.159L172.871 130.717C174.407 129.138 176.252 128.349 178.407 128.349C180.327 128.349 181.777 128.925 182.759 130.077C183.761 131.229 184.124 132.765 183.847 134.685L183.175 139.645C183.068 140.562 183.463 141.021 184.359 141.021ZM201.131 128.733H205.291L203.243 143.293C202.881 145.767 201.825 147.751 200.075 149.245C198.347 150.759 196.225 151.517 193.707 151.517C191.681 151.517 190.017 151.015 188.715 150.013C187.435 149.01 186.657 147.634 186.379 145.885H190.667C190.923 146.439 191.371 146.877 192.011 147.197C192.651 147.538 193.398 147.709 194.251 147.709C195.531 147.709 196.609 147.303 197.483 146.493C198.379 145.682 198.913 144.605 199.083 143.261L199.179 142.525C197.601 144.146 195.734 144.957 193.579 144.957C191.297 144.957 189.505 144.167 188.203 142.589C186.923 140.989 186.454 139.005 186.795 136.637C187.115 134.29 188.15 132.327 189.899 130.749C191.649 129.149 193.654 128.349 195.915 128.349C198.07 128.349 199.713 129.159 200.843 130.781L201.131 128.733ZM194.891 141.181C196.086 141.181 197.153 140.797 198.091 140.029C199.03 139.261 199.649 138.29 199.947 137.117L200.075 136.125C200.118 134.973 199.777 134.023 199.051 133.277C198.347 132.509 197.398 132.125 196.203 132.125C194.902 132.125 193.761 132.562 192.779 133.437C191.798 134.29 191.222 135.357 191.051 136.637C190.881 137.938 191.158 139.026 191.883 139.901C192.609 140.754 193.611 141.181 194.891 141.181Z" fill="white"/>
<defs>
<radialGradient id="paint0_radial_743_27230" cx="0" cy="0" r="1" gradientUnits="userSpaceOnUse" gradientTransform="translate(135.579 135.579) rotate(90) scale(135.579)">
<stop stop-color="#FF4800"/>
<stop offset="0.782173" stop-color="#FE90F4"/>
</radialGradient>
</defs>
</svg>
