<svg width="161" height="13" viewBox="0 0 161 13" fill="none" xmlns="http://www.w3.org/2000/svg">
<path d="M110.996 7.66485H106.621V6.14098C106.671 6.13481 106.714 6.1163 106.763 6.1163C108.552 6.1163 110.342 6.1163 112.131 6.1163C112.371 6.1163 112.458 6.17183 112.458 6.42478C112.445 8.26329 112.439 10.1018 112.445 11.9403C112.445 12.1501 112.384 12.2179 112.18 12.2118C111.804 12.1994 111.434 12.2118 111.033 12.2118V10.3548C110.965 10.4041 110.922 10.4226 110.897 10.4535C109.947 11.6689 108.651 12.2118 107.164 12.366C103.629 12.73 100.748 9.83651 100.526 6.81346C100.335 4.19141 101.507 2.22951 103.765 0.940085C106.159 -0.429545 109.268 0.0948627 111.101 2.12463C111.397 2.45161 111.631 2.83412 111.896 3.18579C112.007 3.33385 111.977 3.42023 111.81 3.5066C111.502 3.66084 111.199 3.82741 110.903 4.00633C110.73 4.11121 110.644 4.05569 110.551 3.90762C109.823 2.70456 108.731 2.04443 107.356 1.79148C105.073 1.37195 102.611 3.02538 102.167 5.29576C101.772 7.30702 102.5 9.1517 104.191 10.1635C106.683 11.6565 109.799 10.6509 110.909 7.96715C110.94 7.88695 110.959 7.80058 111.002 7.67102L110.996 7.66485Z" fill="#B36CF2"/>
<path d="M119.855 2.79079C119.855 3.02523 119.855 3.25351 119.855 3.48795C119.855 6.2889 119.855 9.08986 119.855 11.8908C119.855 12.1561 119.793 12.261 119.51 12.2425C119.121 12.2178 118.726 12.2363 118.313 12.2363V0.353837C118.862 0.353837 119.399 0.347668 119.942 0.360007C120.028 0.360007 120.127 0.471058 120.188 0.551262C122.452 3.53113 124.711 6.51101 126.969 9.49705C127.061 9.62044 127.16 9.73766 127.302 9.92274V0.366176C127.666 0.366176 128.005 0.366176 128.344 0.366176C128.686 0.366176 128.856 0.534809 128.856 0.872076C128.856 4.53676 128.856 8.20145 128.863 11.8661C128.863 12.1376 128.801 12.2486 128.505 12.2301C128.141 12.2055 127.771 12.2178 127.407 12.2363C127.203 12.2486 127.086 12.1684 126.969 12.008C124.834 9.1824 122.693 6.35677 120.552 3.53113C120.349 3.26584 120.133 3.01906 119.917 2.75994C119.892 2.76611 119.874 2.77845 119.849 2.78462L119.855 2.79079Z" fill="#B36CF2"/>
<path d="M30.5085 12.2303V0.397185C30.564 0.384846 30.6072 0.360168 30.6566 0.360168C32.2483 0.372507 33.84 0.33549 35.4256 0.409525C36.5608 0.458881 37.5726 0.896916 38.3623 1.75448C39.4481 2.93285 39.4049 4.59862 38.2697 5.73381C37.6405 6.36927 36.8631 6.73327 35.9994 6.93686C35.9315 6.95537 35.8636 6.96771 35.8019 6.98622C35.7834 6.98622 35.7711 7.0109 35.7279 7.04791C37.042 8.7507 38.3561 10.4535 39.7319 12.2303C39.4666 12.2303 39.2384 12.1995 39.0286 12.2303C38.1772 12.3722 37.6281 12.0576 37.1222 11.3296C36.1413 9.9044 35.0308 8.57178 33.9696 7.20215C33.9017 7.11578 33.766 7.04791 33.655 7.04175C33.1984 7.02941 32.748 7.04791 32.2915 7.04175C32.0941 7.04175 32.0509 7.12195 32.0509 7.30703C32.0571 8.83707 32.0509 10.3733 32.0571 11.9033C32.0571 12.1378 32.0015 12.2365 31.7424 12.2241C31.3414 12.2056 30.9404 12.2241 30.5085 12.2241V12.2303ZM32.0571 3.66702C32.0571 4.20994 32.0571 4.74669 32.0571 5.2896C32.0571 5.45001 32.1002 5.52405 32.273 5.51788C33.1922 5.51788 34.1115 5.54255 35.0308 5.50554C35.7834 5.47469 36.4868 5.25259 37.0667 4.74052C37.7824 4.10506 37.7762 3.22899 37.0544 2.5997C36.6595 2.25421 36.1906 2.03827 35.6847 1.93956C34.5372 1.71746 33.3835 1.83468 32.2298 1.86553C32.1743 1.86553 32.0817 2.01977 32.0756 2.10614C32.0632 2.62438 32.0694 3.14879 32.0694 3.66702H32.0571Z" fill="#B36CF2"/>
<path d="M145.977 12.2298C145.428 12.2298 144.934 12.2421 144.447 12.2175C144.367 12.2175 144.256 12.0941 144.212 12.0015C143.892 11.3044 143.577 10.6072 143.281 9.9039C143.213 9.73732 143.12 9.69414 142.954 9.69414C140.906 9.69414 138.863 9.7003 136.815 9.69414C136.587 9.69414 136.488 9.76817 136.402 9.97176C136.124 10.6319 135.822 11.2797 135.544 11.9398C135.458 12.1496 135.335 12.2421 135.094 12.2298C134.656 12.2113 134.212 12.2298 133.712 12.2298C133.848 11.9213 133.959 11.656 134.076 11.3907C135.692 7.78159 137.309 4.17243 138.931 0.563264C138.975 0.464552 139.123 0.353501 139.227 0.347331C139.659 0.322653 140.097 0.328823 140.529 0.347331C140.628 0.347331 140.764 0.458383 140.807 0.550925C142.503 4.35134 144.194 8.15176 145.884 11.9583C145.915 12.0262 145.934 12.1002 145.977 12.2298ZM139.875 2.25371C138.981 4.24646 138.105 6.18986 137.222 8.15793H142.497C141.627 6.18986 140.764 4.25263 139.881 2.25371H139.875Z" fill="#B36CF2"/>
<path d="M10.6053 8.23213C11.0618 8.44807 11.4937 8.65783 11.944 8.86759C11.4443 9.94726 10.6978 10.7801 9.71685 11.3909C5.7005 13.8587 1.06103 11.2984 0.394725 7.17098C-0.179039 3.59267 2.36897 0.612794 5.63264 0.217946C8.19298 -0.0905297 10.2042 0.878083 11.6356 3.01273C11.8515 3.33972 11.8453 3.34589 11.506 3.51863C11.2469 3.65436 10.9693 3.77775 10.7287 3.93816C10.5312 4.06772 10.4572 4.00602 10.34 3.83945C9.3035 2.32792 7.87217 1.57524 6.02749 1.72331C4.02857 1.88371 2.37514 3.37056 1.96795 5.33247C1.4312 7.91132 3.18334 10.4223 5.81772 10.7493C7.76112 10.9899 9.53177 10.1447 10.4634 8.46658C10.5004 8.39871 10.5436 8.33702 10.6114 8.23213H10.6053Z" fill="#B36CF2"/>
<path d="M159.55 4.0619C159.42 3.88299 159.297 3.70407 159.167 3.53133C157.168 0.915455 153.238 1.13139 151.542 3.95085C149.857 6.73947 151.634 10.3795 154.886 10.7496C156.872 10.9779 158.624 10.0587 159.507 8.46076C159.624 8.24483 159.723 8.23866 159.92 8.34354C160.265 8.52246 160.629 8.68286 161 8.85561C160.765 9.46639 160.395 9.95995 159.969 10.4103C158.026 12.4463 155.003 12.9707 152.56 11.5702C150.579 10.435 149.506 8.68903 149.382 6.37547C149.228 3.46346 151.671 0.403386 154.954 0.168945C157.477 -0.00997099 159.414 1.02034 160.759 3.15499C160.839 3.27838 160.864 3.37092 160.691 3.45729C160.315 3.64238 159.945 3.85214 159.556 4.0619H159.55Z" fill="#B36CF2"/>
<path d="M15.288 0.347916C15.8371 0.347916 16.3307 0.335577 16.8242 0.360255C16.9353 0.360255 17.0834 0.465137 17.1451 0.563849C18.1939 2.39619 19.2365 4.23471 20.2792 6.07322C20.3224 6.14725 20.3717 6.21512 20.4457 6.33851C20.674 5.94983 20.8776 5.61051 21.0689 5.26501C21.9511 3.69796 22.8272 2.1309 23.7156 0.570018C23.7649 0.477476 23.876 0.360255 23.9624 0.354085C24.4806 0.335577 24.9988 0.341746 25.5788 0.341746C25.4986 0.502154 25.4554 0.607035 25.3999 0.705747C24.0426 3.09952 22.6853 5.49329 21.3403 7.89322C21.254 8.04746 21.2108 8.24489 21.2108 8.4238C21.1984 9.58367 21.1923 10.7435 21.2108 11.9034C21.2108 12.1872 21.1182 12.2612 20.8529 12.2489C20.4643 12.2304 20.0694 12.2489 19.6622 12.2489C19.6622 11.1939 19.6252 10.2006 19.6746 9.2135C19.7116 8.44231 19.5141 7.78834 19.1193 7.11587C17.836 4.96271 16.6206 2.77253 15.3867 0.594696C15.3559 0.539171 15.3374 0.477476 15.3004 0.366424L15.288 0.347916Z" fill="#B36CF2"/>
<path d="M54.2859 6.25188C54.2859 4.37635 54.2859 2.50082 54.2859 0.625289C54.2859 0.421695 54.3414 0.341492 54.545 0.341492C54.9028 0.347661 55.2545 0.341492 55.6123 0.341492C55.7665 0.341492 55.8467 0.397017 55.8406 0.569763C55.8282 0.921425 55.8406 1.27926 55.8406 1.63092C55.8406 4.53676 55.8467 7.44876 55.8406 10.3546C55.8406 10.6261 55.9084 10.7063 56.1861 10.7001C58.4564 10.6878 60.733 10.7001 63.0034 10.7001C63.2748 10.7001 63.3735 10.7741 63.355 11.0518C63.3365 11.3664 63.3489 11.681 63.355 11.9957C63.3612 12.1746 63.2933 12.2301 63.1144 12.2301C60.2888 12.2178 57.4632 12.2116 54.6375 12.2178C54.3722 12.2178 54.3044 12.1376 54.3044 11.8846C54.3167 10.0091 54.3044 8.13358 54.3044 6.25805C54.3044 6.25805 54.292 6.25805 54.2859 6.25805V6.25188Z" fill="#B36CF2"/>
<path d="M78.8469 6.25788C78.8469 4.38852 78.8469 2.52532 78.8469 0.655963C78.8469 0.421522 78.8963 0.31664 79.1554 0.335148C79.4885 0.359826 79.8279 0.359826 80.161 0.347487C80.3523 0.347487 80.3893 0.421522 80.3893 0.594268C80.3831 3.72838 80.377 6.86249 80.377 9.9966C80.377 10.6938 80.3893 10.6938 81.0864 10.6938C83.2519 10.6938 85.4113 10.7061 87.5768 10.6938C87.8667 10.6938 87.9531 10.7925 87.9346 11.0639C87.9099 11.3662 87.9223 11.6747 87.9346 11.977C87.9408 12.1621 87.8729 12.2176 87.694 12.2176C87.1202 12.2053 86.5464 12.1929 85.9727 12.1991C83.6776 12.2053 81.3887 12.2115 79.0937 12.23C78.8531 12.23 78.8469 12.1127 78.8469 11.94C78.8469 10.046 78.8469 8.14575 78.8469 6.25171V6.25788Z" fill="#B36CF2"/>
<path d="M45.6853 12.2361V11.8968C45.6853 8.16422 45.6853 4.43167 45.6792 0.69912C45.6792 0.415323 45.7532 0.316611 46.037 0.341289C46.364 0.365967 46.691 0.359797 47.0118 0.353628C47.1845 0.353628 47.2401 0.415323 47.2401 0.57573C47.2401 0.791663 47.2401 1.0076 47.2401 1.22353C47.2401 4.77716 47.2401 8.33697 47.2401 11.8906C47.2401 12.1559 47.1784 12.2608 46.8946 12.2423C46.5059 12.2176 46.111 12.2423 45.6792 12.2423L45.6853 12.2361Z" fill="#B36CF2"/>
<path d="M93.1286 12.2301C93.1224 12.1314 93.1101 12.045 93.1101 11.9587C93.1101 8.28782 93.1101 4.61696 93.1101 0.939934C93.1101 0.540972 93.3137 0.341492 93.7209 0.341492C94.0047 0.341492 94.2885 0.341492 94.597 0.341492C94.597 0.588272 94.597 0.798035 94.597 1.01397C94.6031 4.61696 94.6155 8.21995 94.6216 11.8229C94.6216 12.2116 94.6216 12.2178 94.2391 12.224C93.8751 12.2301 93.5111 12.224 93.1224 12.224L93.1286 12.2301Z" fill="#B36CF2"/>
</svg>
