<svg width="80" height="80" viewBox="0 0 80 80" fill="none" xmlns="http://www.w3.org/2000/svg">
<g clip-path="url(#clip0_1275_2651)">
<path d="M69.0583 10.9414C69.0583 10.9414 71.725 39.9997 58.3634 39.9997C71.725 39.9997 69.0583 69.058 69.0583 69.058C69.0583 69.058 40 71.7247 40 58.3631C40 71.7247 10.9417 69.058 10.9417 69.058C10.9417 69.058 8.27501 39.9997 21.6366 39.9997C8.27501 39.9997 10.9417 10.9414 10.9417 10.9414C10.9417 10.9414 40 8.27471 40 21.6363C40 8.27471 69.0583 10.9414 69.0583 10.9414Z" fill="url(#paint0_radial_1275_2651)"/>
<path d="M29.4651 40.7512V39.5008C29.4823 39.3504 29.4995 39.2015 29.5167 39.0511C29.7716 36.7551 30.6482 34.7312 32.1965 33.0139C33.8379 31.192 35.8733 30.0533 38.2953 29.625C38.6964 29.5534 39.1031 29.5133 39.507 29.4589C39.9239 29.4589 40.3407 29.4589 40.7575 29.4589C40.8248 29.4718 40.8921 29.4861 40.9594 29.4961C41.4249 29.5634 41.8976 29.6007 42.3574 29.7009C44.9341 30.261 47.0425 31.5887 48.6237 33.6942C50.5702 36.2838 51.2134 39.1972 50.5502 42.3683C50.0174 44.9193 48.6796 46.9933 46.6171 48.5803C44.3898 50.2933 41.8532 51.0052 39.0616 50.7373C36.7613 50.5153 34.7389 49.613 33.0201 48.0661C31.1968 46.4232 30.0581 44.3864 29.6284 41.9644C29.5568 41.5634 29.5167 41.1566 29.4622 40.7527L29.4651 40.7512ZM34.5455 47.0964C37.1409 49.2492 40.9465 49.6588 43.8269 48.258C43.466 46.0508 42.8357 43.9166 42.0308 41.8111C38.9871 42.8152 36.5522 44.6471 34.5455 47.0964ZM31.1996 39.7615C30.9776 41.6063 32.1335 44.9264 33.3223 45.8818C35.4937 43.2735 38.1306 41.3227 41.392 40.2241C41.084 39.5696 40.7818 38.9279 40.4753 38.2748C37.4517 39.2917 34.3607 39.7257 31.1996 39.7615ZM31.4374 38.0456C34.2419 37.984 36.9747 37.5958 39.6374 36.7408C39.2965 35.9286 36.9317 32.3034 36.5164 31.9482C33.9855 33.0354 32.0361 35.4058 31.4388 38.0456H31.4374ZM47.1227 34.545C46.3034 35.1366 45.5314 35.7539 44.7006 36.2767C43.8727 36.798 42.9861 37.2263 42.121 37.6975C42.4361 38.3793 42.7598 39.0826 43.0893 39.7959C45.0859 39.4077 47.0754 39.4521 49.0763 39.8517C48.9933 37.8279 48.3301 36.0647 47.1227 34.545ZM41.349 36.1062C42.9876 35.413 44.5244 34.5006 45.868 33.2774C44.9871 32.4166 43.1809 31.5601 41.6813 31.308C40.5526 31.1189 39.424 31.1103 38.3397 31.3624C39.3409 32.9394 40.3378 34.5121 41.349 36.1062ZM45.4053 47.3571C47.349 45.8718 48.5378 43.9754 48.9704 41.5863C47.2301 41.1967 45.5013 41.1122 43.7252 41.4101C44.4514 43.3523 45.0157 45.3117 45.4053 47.3571Z" fill="white"/>
</g>
<defs>
<radialGradient id="paint0_radial_1275_2651" cx="0" cy="0" r="1" gradientUnits="userSpaceOnUse" gradientTransform="translate(40 39.9997) rotate(135) scale(41.0947)">
<stop stop-color="#FD88DD"/>
<stop offset="1" stop-color="#FF4800"/>
</radialGradient>
<clipPath id="clip0_1275_2651">
<rect width="80" height="80" fill="white" transform="translate(0 -0.000244141)"/>
</clipPath>
</defs>
</svg>
