<svg width="153" height="19" viewBox="0 0 153 19" fill="none" xmlns="http://www.w3.org/2000/svg">
<path d="M151.805 8.76307C151.648 8.57997 151.386 8.39034 151.02 8.19417C150.667 7.998 150.255 7.89991 149.784 7.89991C149.261 7.89991 148.836 8.01761 148.509 8.25302C148.195 8.47535 148.038 8.80884 148.038 9.2535C148.038 9.64584 148.169 9.99895 148.43 10.3128C148.705 10.6136 149.143 10.9798 149.745 11.4114C150.412 11.9084 150.922 12.3922 151.275 12.8631C151.628 13.3208 151.805 13.9093 151.805 14.6286C151.805 15.3479 151.608 15.9626 151.216 16.4726C150.824 16.9696 150.301 17.3489 149.647 17.6104C148.993 17.8589 148.273 17.9831 147.489 17.9831C146.9 17.9831 146.299 17.9178 145.684 17.787C145.069 17.6431 144.67 17.4927 144.487 17.3358L144.88 15.6683C145.154 15.9037 145.527 16.126 145.998 16.3353C146.469 16.5445 146.959 16.6492 147.469 16.6492C147.953 16.6492 148.365 16.538 148.705 16.3157C149.058 16.0934 149.235 15.7468 149.235 15.276C149.235 14.8706 149.084 14.5044 148.783 14.1774C148.483 13.8505 148.031 13.4777 147.43 13.0592C146.881 12.68 146.416 12.2353 146.037 11.7253C145.671 11.2021 145.488 10.5744 145.488 9.84201C145.488 9.21426 145.664 8.65844 146.017 8.17455C146.384 7.69066 146.881 7.31793 147.508 7.05637C148.149 6.78173 148.882 6.64441 149.705 6.64441C150.189 6.64441 150.68 6.68364 151.177 6.76211C151.674 6.84058 152.007 6.92559 152.177 7.01714L151.805 8.76307Z" fill="#B36CF2"/>
<path d="M140.68 9.46928C140.929 8.72383 141.354 8.06992 141.955 7.50757C142.57 6.93213 143.257 6.64441 144.015 6.64441C144.277 6.64441 144.499 6.70326 144.682 6.82096L144.113 9.64584C144.035 9.58045 143.904 9.5216 143.721 9.46928C143.551 9.40389 143.342 9.3712 143.093 9.3712C142.622 9.3712 142.171 9.47582 141.739 9.68507C141.308 9.88124 140.974 10.169 140.739 10.5482L139.778 17.787H137.228L138.463 8.46881L137.463 7.91953L137.6 7.13484L140.406 6.66403L140.857 6.93867L140.759 8.72383L140.68 9.46928Z" fill="#B36CF2"/>
<path d="M133.868 15.8253C133.855 15.8906 133.848 15.9691 133.848 16.0607C133.848 16.3745 133.959 16.5315 134.182 16.5315C134.299 16.5315 134.43 16.4922 134.574 16.4138C134.718 16.3353 134.901 16.2045 135.123 16.0214L135.378 16.6296C135.156 16.9304 134.823 17.2312 134.378 17.5319C133.946 17.8327 133.417 17.9831 132.789 17.9831C132.279 17.9831 131.88 17.8851 131.592 17.6889C131.305 17.4796 131.161 17.1985 131.161 16.8453L131.18 16.6492C131.259 15.9691 131.527 13.9943 131.985 10.7248L132.299 8.44919L131.141 7.89991L131.278 7.13484L134.653 6.66403L135.123 6.87981L133.868 15.8253ZM134.084 4.78078C133.731 4.78078 133.423 4.64999 133.162 4.38843C132.913 4.11379 132.789 3.79992 132.789 3.44681C132.789 2.96292 132.946 2.5575 133.26 2.23054C133.587 1.90359 133.999 1.74011 134.496 1.74011C134.901 1.74011 135.221 1.87089 135.457 2.13246C135.692 2.38094 135.81 2.68174 135.81 3.03485C135.81 3.53181 135.66 3.95031 135.359 4.29035C135.058 4.6173 134.633 4.78078 134.084 4.78078Z" fill="#B36CF2"/>
<path d="M129.008 8.76307C128.851 8.57997 128.589 8.39034 128.223 8.19417C127.87 7.998 127.458 7.89991 126.987 7.89991C126.464 7.89991 126.039 8.01761 125.712 8.25302C125.398 8.47535 125.241 8.80884 125.241 9.2535C125.241 9.64584 125.372 9.99895 125.633 10.3128C125.908 10.6136 126.346 10.9798 126.948 11.4114C127.615 11.9084 128.125 12.3922 128.478 12.8631C128.831 13.3208 129.008 13.9093 129.008 14.6286C129.008 15.3479 128.811 15.9626 128.419 16.4726C128.027 16.9696 127.504 17.3489 126.85 17.6104C126.196 17.8589 125.476 17.9831 124.692 17.9831C124.103 17.9831 123.502 17.9178 122.887 17.787C122.272 17.6431 121.873 17.4927 121.69 17.3358L122.083 15.6683C122.357 15.9037 122.73 16.126 123.201 16.3353C123.672 16.5445 124.162 16.6492 124.672 16.6492C125.156 16.6492 125.568 16.538 125.908 16.3157C126.261 16.0934 126.438 15.7468 126.438 15.276C126.438 14.8706 126.287 14.5044 125.986 14.1774C125.686 13.8505 125.234 13.4777 124.633 13.0592C124.084 12.68 123.619 12.2353 123.24 11.7253C122.874 11.2021 122.691 10.5744 122.691 9.84201C122.691 9.21426 122.867 8.65844 123.22 8.17455C123.587 7.69066 124.084 7.31793 124.711 7.05637C125.352 6.78173 126.085 6.64441 126.908 6.64441C127.392 6.64441 127.883 6.68364 128.38 6.76211C128.877 6.84058 129.21 6.92559 129.38 7.01714L129.008 8.76307Z" fill="#B36CF2"/>
<path d="M119.174 15.8253C119.161 15.8906 119.154 15.9691 119.154 16.0607C119.154 16.3745 119.265 16.5315 119.488 16.5315C119.605 16.5315 119.736 16.4922 119.88 16.4138C120.024 16.3353 120.207 16.2045 120.429 16.0214L120.684 16.6296C120.462 16.9304 120.128 17.2312 119.684 17.5319C119.252 17.8327 118.722 17.9831 118.095 17.9831C117.585 17.9831 117.186 17.8851 116.898 17.6889C116.61 17.4796 116.466 17.1985 116.466 16.8453L116.486 16.6492C116.565 15.9691 116.833 13.9943 117.29 10.7248L117.604 8.44919L116.447 7.89991L116.584 7.13484L119.958 6.66403L120.429 6.87981L119.174 15.8253ZM119.389 4.78078C119.036 4.78078 118.729 4.64999 118.467 4.38843C118.219 4.11379 118.095 3.79992 118.095 3.44681C118.095 2.96292 118.252 2.5575 118.566 2.23054C118.892 1.90359 119.304 1.74011 119.801 1.74011C120.207 1.74011 120.527 1.87089 120.763 2.13246C120.998 2.38094 121.116 2.68174 121.116 3.03485C121.116 3.53181 120.965 3.95031 120.665 4.29035C120.364 4.6173 119.939 4.78078 119.389 4.78078Z" fill="#B36CF2"/>
<path d="M110.33 6.62482C111.69 6.62482 112.73 7.0237 113.449 7.82147C114.168 8.60615 114.528 9.73741 114.528 11.2152C114.528 12.4315 114.279 13.5628 113.783 14.609C113.286 15.6553 112.586 16.4923 111.683 17.12C110.781 17.7347 109.748 18.042 108.584 18.042C107.224 18.042 106.184 17.6431 105.465 16.8454C104.759 16.0345 104.405 14.8837 104.405 13.3927C104.405 12.1634 104.647 11.0321 105.131 9.99897C105.628 8.9658 106.328 8.14842 107.23 7.54682C108.133 6.93215 109.166 6.62482 110.33 6.62482ZM109.996 7.8607C109.395 7.8607 108.885 8.13534 108.466 8.68462C108.048 9.22082 107.734 9.90742 107.525 10.7444C107.328 11.5814 107.23 12.438 107.23 13.3143C107.23 14.5567 107.368 15.4656 107.642 16.0411C107.93 16.6165 108.375 16.9042 108.976 16.9042C109.565 16.9042 110.062 16.6296 110.467 16.0803C110.873 15.531 111.173 14.8313 111.37 13.9813C111.566 13.1312 111.664 12.2615 111.664 11.3722C111.664 10.1298 111.527 9.2339 111.252 8.68462C110.99 8.13534 110.572 7.8607 109.996 7.8607Z" fill="#B36CF2"/>
<path d="M101.39 15.8251C101.377 15.8775 101.371 15.9494 101.371 16.0409C101.371 16.3679 101.488 16.5314 101.724 16.5314C101.841 16.5314 101.966 16.4987 102.096 16.4333C102.24 16.3679 102.43 16.2306 102.665 16.0213L102.92 16.6294C102.711 16.9302 102.404 17.231 101.998 17.5318C101.593 17.8326 101.07 17.983 100.429 17.983C99.932 17.983 99.5266 17.8849 99.2127 17.6888C98.8988 17.4795 98.7353 17.1591 98.7223 16.7275C98.7223 16.6752 98.7484 16.4398 98.8007 16.0213L100.507 3.48593L99.2715 3.09358L99.4481 2.36775L102.783 1.9754L103.234 2.23043L101.39 15.8251Z" fill="#B36CF2"/>
<path d="M92.1299 8.76291C91.973 8.57982 91.7114 8.39018 91.3452 8.19401C90.9921 7.99784 90.5802 7.89975 90.1094 7.89975C89.5862 7.89975 89.1612 8.01746 88.8343 8.25286C88.5204 8.47519 88.3634 8.80868 88.3634 9.25334C88.3634 9.64568 88.4942 9.99879 88.7558 10.3127C89.0304 10.6135 89.4685 10.9797 90.0701 11.4112C90.7371 11.9082 91.2472 12.3921 91.6003 12.8629C91.9534 13.3206 92.1299 13.9092 92.1299 14.6284C92.1299 15.3477 91.9338 15.9624 91.5414 16.4725C91.1491 16.9694 90.6259 17.3487 89.972 17.6103C89.3181 17.8587 88.5988 17.983 87.8142 17.983C87.2256 17.983 86.624 17.9176 86.0094 17.7868C85.3947 17.643 84.9958 17.4926 84.8127 17.3356L85.2051 15.6682C85.4797 15.9036 85.8524 16.1259 86.3232 16.3351C86.7941 16.5444 87.2845 16.649 87.7945 16.649C88.2784 16.649 88.6904 16.5379 89.0304 16.3155C89.3835 16.0932 89.5601 15.7466 89.5601 15.2758C89.5601 14.8704 89.4097 14.5042 89.1089 14.1773C88.8081 13.8503 88.3569 13.4776 87.7553 13.0591C87.206 12.6798 86.7417 12.2352 86.3625 11.7251C85.9963 11.202 85.8132 10.5742 85.8132 9.84186C85.8132 9.21411 85.9897 8.65829 86.3429 8.17439C86.709 7.6905 87.206 7.31778 87.8338 7.05621C88.4746 6.78157 89.207 6.64425 90.0309 6.64425C90.5148 6.64425 91.0052 6.68349 91.5022 6.76196C91.9992 6.84043 92.3326 6.92543 92.5027 7.01698L92.1299 8.76291Z" fill="#B36CF2"/>
<path d="M83.4892 15.8253C83.1491 16.3615 82.5933 16.865 81.8217 17.3358C81.0632 17.8066 80.1804 18.042 79.1734 18.042C78.2318 18.042 77.4536 17.8393 76.8389 17.4339C76.2374 17.0285 75.7992 16.4988 75.5246 15.8449C75.2499 15.191 75.1126 14.4782 75.1126 13.7066C75.1126 12.3988 75.3742 11.2087 75.8973 10.1363C76.4335 9.05081 77.1594 8.19419 78.0748 7.56644C78.9903 6.93869 80.0104 6.62482 81.1351 6.62482C82.1421 6.62482 82.8876 6.86022 83.3715 7.33103C83.8684 7.78877 84.1169 8.39036 84.1169 9.13582C84.1169 10.0774 83.7769 10.8621 83.0968 11.4899C82.4168 12.1176 81.5994 12.5884 80.6447 12.9023C79.69 13.2031 78.7876 13.3666 77.9375 13.3927C77.9114 14.3344 78.0618 15.0929 78.3887 15.6683C78.7287 16.2438 79.2388 16.5315 79.9188 16.5315C81.0436 16.5315 82.0637 16.0084 82.9791 14.9621L83.4892 15.8253ZM80.5466 7.84108C79.775 7.84108 79.1668 8.30536 78.7222 9.2339C78.2775 10.1624 78.016 11.1956 77.9375 12.3334C78.4476 12.3073 78.9838 12.1699 79.5461 11.9215C80.1216 11.673 80.5989 11.3264 80.9782 10.8817C81.3705 10.424 81.5667 9.90089 81.5667 9.31237C81.5667 8.84156 81.4751 8.48191 81.292 8.23343C81.122 7.97186 80.8735 7.84108 80.5466 7.84108Z" fill="#B36CF2"/>
<path d="M72.1773 15.8055C72.1643 15.8578 72.1577 15.9363 72.1577 16.0409C72.1577 16.3679 72.2689 16.5314 72.4912 16.5314C72.7135 16.5314 73.0078 16.381 73.374 16.0802L73.6486 16.6883C72.9163 17.5514 72.1054 17.983 71.2161 17.983C70.7584 17.983 70.4118 17.8719 70.1764 17.6495C69.941 17.4272 69.8037 17.0872 69.7644 16.6294V16.3352C69.4375 16.7929 68.9994 17.1853 68.4501 17.5122C67.9008 17.8261 67.273 17.983 66.5668 17.983C65.4683 17.983 64.6509 17.6103 64.1147 16.8648C63.5785 16.1063 63.3104 15.1189 63.3104 13.9027C63.3104 12.6864 63.5523 11.5224 64.0362 10.4108C64.5201 9.29915 65.2394 8.39676 66.1941 7.70362C67.1619 6.9974 68.3258 6.64429 69.686 6.64429C70.0652 6.64429 70.4641 6.69661 70.8826 6.80123L71.373 3.48593L69.9606 3.09358L70.1372 2.36775L73.6683 1.9754L74.1587 2.23043L72.1773 15.8055ZM70.6864 8.1352C70.3595 7.95211 69.9475 7.86056 69.4506 7.86056C68.6528 7.86056 67.9989 8.1679 67.4888 8.78257C66.9788 9.38416 66.6061 10.1362 66.3707 11.0385C66.1353 11.9409 66.0175 12.8564 66.0175 13.785C66.0175 14.6481 66.1483 15.3151 66.4099 15.7859C66.6845 16.2567 67.0703 16.4921 67.5673 16.4921C67.9727 16.4921 68.3585 16.3679 68.7247 16.1194C69.0909 15.8578 69.3917 15.5505 69.6271 15.1974L70.6864 8.1352Z" fill="#B36CF2"/>
<path d="M56.822 15.8253C56.482 16.3615 55.9262 16.865 55.1546 17.3358C54.396 17.8066 53.5133 18.042 52.5063 18.042C51.5646 18.042 50.7865 17.8393 50.1718 17.4339C49.5702 17.0285 49.1321 16.4988 48.8575 15.8449C48.5828 15.191 48.4455 14.4782 48.4455 13.7066C48.4455 12.3988 48.7071 11.2087 49.2302 10.1363C49.7664 9.05081 50.4922 8.19419 51.4077 7.56644C52.3232 6.93869 53.3433 6.62482 54.468 6.62482C55.475 6.62482 56.2204 6.86022 56.7043 7.33103C57.2013 7.78877 57.4498 8.39036 57.4498 9.13582C57.4498 10.0774 57.1098 10.8621 56.4297 11.4899C55.7496 12.1176 54.9323 12.5884 53.9775 12.9023C53.0228 13.2031 52.1205 13.3666 51.2704 13.3927C51.2442 14.3344 51.3946 15.0929 51.7216 15.6683C52.0616 16.2438 52.5716 16.5315 53.2517 16.5315C54.3764 16.5315 55.3965 16.0084 56.312 14.9621L56.822 15.8253ZM53.8795 7.84108C53.1078 7.84108 52.4997 8.30536 52.0551 9.2339C51.6104 10.1624 51.3488 11.1956 51.2704 12.3334C51.7804 12.3073 52.3166 12.1699 52.879 11.9215C53.4544 11.673 53.9318 11.3264 54.311 10.8817C54.7034 10.424 54.8996 9.90089 54.8996 9.31237C54.8996 8.84156 54.808 8.48191 54.6249 8.23343C54.4549 7.97186 54.2064 7.84108 53.8795 7.84108Z" fill="#B36CF2"/>
<path d="M45.4698 15.8251C45.4567 15.8775 45.4501 15.9494 45.4501 16.0409C45.4501 16.3679 45.5678 16.5314 45.8032 16.5314C45.921 16.5314 46.0452 16.4987 46.176 16.4333C46.3198 16.3679 46.5095 16.2306 46.7449 16.0213L46.9999 16.6294C46.7906 16.9302 46.4833 17.231 46.0779 17.5318C45.6725 17.8326 45.1493 17.983 44.5085 17.983C44.0115 17.983 43.6061 17.8849 43.2922 17.6888C42.9784 17.4795 42.8149 17.1591 42.8018 16.7275C42.8018 16.6752 42.828 16.4398 42.8803 16.0213L44.587 3.48593L43.3511 3.09358L43.5277 2.36775L46.8626 1.9754L47.3138 2.23043L45.4698 15.8251Z" fill="#B36CF2"/>
<path d="M36.8796 6.62482C38.2398 6.62482 39.2795 7.0237 39.9988 7.82147C40.7181 8.60615 41.0777 9.73741 41.0777 11.2152C41.0777 12.4315 40.8292 13.5628 40.3323 14.609C39.8353 15.6553 39.1356 16.4923 38.2332 17.12C37.3308 17.7347 36.2977 18.042 35.1337 18.042C33.7736 18.042 32.7339 17.6431 32.0146 16.8454C31.3084 16.0345 30.9552 14.8837 30.9552 13.3927C30.9552 12.1634 31.1972 11.0321 31.6811 9.99897C32.1781 8.9658 32.8777 8.14842 33.7801 7.54682C34.6825 6.93215 35.7157 6.62482 36.8796 6.62482ZM36.5462 7.8607C35.9446 7.8607 35.4345 8.13534 35.016 8.68462C34.5975 9.22082 34.2836 9.90742 34.0744 10.7444C33.8782 11.5814 33.7801 12.438 33.7801 13.3143C33.7801 14.5567 33.9174 15.4656 34.1921 16.0411C34.4798 16.6165 34.9245 16.9042 35.5261 16.9042C36.1146 16.9042 36.6115 16.6296 37.017 16.0803C37.4224 15.531 37.7232 14.8313 37.9194 13.9813C38.1155 13.1312 38.2136 12.2615 38.2136 11.3722C38.2136 10.1298 38.0763 9.2339 37.8016 8.68462C37.5401 8.13534 37.1216 7.8607 36.5462 7.8607Z" fill="#B36CF2"/>
<path d="M28.9939 9.56737C28.6277 9.10964 28.3007 8.74345 28.013 8.46881C27.7384 8.18109 27.4964 8.03723 27.2872 8.03723C26.8033 8.03723 26.3521 8.25956 25.9336 8.70421C25.5282 9.14887 25.1947 9.77008 24.9331 10.5678C24.6846 11.3656 24.5604 12.2615 24.5604 13.2554C24.5604 14.3409 24.7173 15.1387 25.0312 15.6487C25.3451 16.1457 25.8224 16.3942 26.4633 16.3942C27.0126 16.3942 27.4768 16.2895 27.8561 16.0803C28.2484 15.871 28.6277 15.5768 28.9939 15.1975L29.5039 16.0607C29.177 16.5445 28.6604 16.9892 27.9542 17.3946C27.261 17.787 26.4371 17.9831 25.4824 17.9831C24.3577 17.9831 23.4749 17.5908 22.8341 16.8061C22.1933 16.0083 21.8728 14.8836 21.8728 13.432C21.8728 12.3334 22.1017 11.2675 22.5594 10.2344C23.0172 9.1881 23.6972 8.33149 24.5996 7.6645C25.502 6.98444 26.5875 6.64441 27.8561 6.64441C28.2615 6.64441 28.68 6.68364 29.1116 6.76211C29.5562 6.8275 29.9159 6.92559 30.1905 7.05637L29.5236 9.60661L28.9939 9.56737Z" fill="#B36CF2"/>
<path d="M20.0585 15.8252C19.7184 16.3614 19.1626 16.8649 18.391 17.3357C17.6325 17.8065 16.7497 18.0419 15.7427 18.0419C14.8011 18.0419 14.0229 17.8392 13.4082 17.4338C12.8066 17.0284 12.3685 16.4987 12.0939 15.8448C11.8192 15.1909 11.6819 14.4781 11.6819 13.7065C11.6819 12.3987 11.9435 11.2086 12.4666 10.1362C13.0028 9.0507 13.7287 8.19409 14.6441 7.56634C15.5596 6.93859 16.5797 6.62471 17.7044 6.62471C18.7114 6.62471 19.4569 6.86012 19.9408 7.33093C20.4377 7.78867 20.6862 8.39026 20.6862 9.13571C20.6862 10.0773 20.3462 10.862 19.6661 11.4898C18.9861 12.1175 18.1687 12.5883 17.214 12.9022C16.2593 13.203 15.3569 13.3665 14.5068 13.3926C14.4806 14.3343 14.631 15.0928 14.958 15.6682C15.298 16.2437 15.8081 16.5314 16.4881 16.5314C17.6129 16.5314 18.6329 16.0083 19.5484 14.962L20.0585 15.8252ZM17.1159 7.84098C16.3443 7.84098 15.7361 8.30525 15.2915 9.2338C14.8468 10.1623 14.5853 11.1955 14.5068 12.3333C15.0168 12.3072 15.553 12.1698 16.1154 11.9214C16.6908 11.6729 17.1682 11.3263 17.5475 10.8816C17.9398 10.4239 18.136 9.90078 18.136 9.31227C18.136 8.84146 18.0444 8.48181 17.8613 8.23332C17.6913 7.97176 17.4428 7.84098 17.1159 7.84098ZM19.5288 0.50415L21.1178 2.05391C21.0001 2.26316 20.6928 2.60319 20.1958 3.074C19.6988 3.53174 19.1626 3.98293 18.5872 4.42759C18.0117 4.87224 17.5409 5.17304 17.1747 5.32998L16.4293 4.60414L19.5288 0.50415Z" fill="#B36CF2"/>
<path d="M10.793 1.62256L9.2236 8.52781H7.59537L8.39968 1.62256H10.793Z" fill="#B36CF2"/>
<path d="M3.24634 15.8251C3.23326 15.8775 3.22672 15.9494 3.22672 16.0409C3.22672 16.3679 3.34442 16.5314 3.57983 16.5314C3.69753 16.5314 3.82177 16.4987 3.95256 16.4333C4.09642 16.3679 4.28605 16.2306 4.52145 16.0213L4.77648 16.6294C4.56723 16.9302 4.25989 17.231 3.85447 17.5318C3.44905 17.8326 2.92592 17.983 2.2851 17.983C1.78813 17.983 1.3827 17.8849 1.06883 17.6888C0.754954 17.4795 0.591478 17.1591 0.5784 16.7275C0.5784 16.6752 0.604556 16.4398 0.656868 16.0213L2.36356 3.48593L1.12768 3.09358L1.30424 2.36775L4.63916 1.9754L5.09035 2.23043L3.24634 15.8251Z" fill="#B36CF2"/>
</svg>
