<svg width="135" height="129" viewBox="0 0 135 129" fill="none" xmlns="http://www.w3.org/2000/svg">
<path fill-rule="evenodd" clip-rule="evenodd" d="M62.5693 82.4668C56.0693 88.253 49.0693 99.8255 51.0693 105.612C53.0693 111.398 40.0693 118.149 28.5693 117.184C19.3693 116.413 14.0693 113.327 12.5693 111.88L6.56934 127.31C18.736 130.043 45.8693 131.457 57.0693 115.256C75.0693 122.97 100.569 113.809 99.0693 96.9324C97.5693 80.0559 65.5694 94.0393 62.5693 96.9324C60.1693 99.2469 64.5693 88.253 67.0693 82.4668H62.5693ZM70.0526 102.56C68.4023 103.657 66.5873 104.865 64.5693 106.094C75.0693 112.844 88.0693 103.683 83.5693 99.3432C80.0252 95.9254 76.171 98.4894 70.0526 102.56Z" fill="#FF4800"/>
<path d="M60 81C60.5033 76.2233 60.3446 71.9884 54.3055 60.0466C49.4407 57.9767 43.5357 52.7861 58.8348 48.5826C77.9587 43.3282 88.0239 52.4039 82.488 57.6583C76.9522 62.9127 71.9196 79.6311 70.4098 83.4524C68.9 87.2738 59.4967 85.7767 60 81Z" fill="#B36BF2"/>
<path d="M11.1056 72.7253C22.1408 77.081 43.2081 70.3055 70.2945 51.9147C86.011 58.8516 121.958 75.6293 128.981 66.4339C136.003 57.2385 113.431 48.8498 99.888 43.2035C111.592 44.4941 135 44.6554 135 34.9761C135 25.2967 111.592 24.8128 99.888 25.7807C110.923 21.7476 131.388 11.7457 124.968 4.00218C118.548 -3.74129 95.5408 8.19644 84.84 15.1332C85.1744 10.2936 84.3384 0.614444 78.3192 0.614444C70.7952 0.614444 66.2808 13.6816 64.2744 11.2615C62.268 8.84145 53.2392 -2.77332 46.2168 0.614444C40.5989 3.32466 43.876 11.4229 46.2168 15.1332C34.0112 9.97092 8.89772 1.96933 6.08876 11.2615C3.2798 20.5537 20.9701 26.4258 30.1664 28.2003C-20.997 41.2674 2.57847 51.9147 30.1664 49.4949C7.09196 56.7544 0.0704313 68.3696 11.1056 72.7253Z" fill="#FE90D9"/>
<ellipse cx="66.5" cy="34" rx="16.5" ry="7" fill="#C76A00"/>
</svg>
