<svg width="112" height="73" viewBox="0 0 112 73" fill="none" xmlns="http://www.w3.org/2000/svg">
<path d="M14.7023 38.8513L6.21269 40.6007C5.11378 40.8271 4.34618 40.1542 4.43276 38.7213L5.12723 26.8304C5.18978 25.7169 5.77652 24.967 6.63841 24.7894L14.7402 23.12C15.559 22.9512 16.3646 23.4816 16.5333 24.3004C16.702 25.1192 16.1673 25.9032 15.3485 26.0719L8.34561 27.515L8.16174 30.7649L13.3977 29.686C14.2165 29.5173 15.0177 30.0261 15.1864 30.8449C15.3551 31.6637 14.8159 32.4262 13.9971 32.5949L7.9639 33.8381L7.75914 37.2047L14.094 35.8993C14.9128 35.7306 15.7184 36.2609 15.8872 37.0797C16.0559 37.8985 15.5211 38.6826 14.7023 38.8513ZM32.3962 21.5932L31.9558 28.9392C31.8382 30.9851 31.3904 32.6272 30.5522 33.9006C29.5771 35.3819 28.0467 36.3486 25.8058 36.8104C22.3151 37.5297 19.7741 36.0991 19.1125 32.8885C18.9571 32.1344 18.9392 31.2845 18.9815 30.3998L19.3657 23.7616C19.4283 22.6481 20.015 21.8982 20.8769 21.7206C21.9758 21.4942 22.7434 22.1671 22.6569 23.6001L22.2758 30.0354C22.2531 30.5792 22.2475 31.097 22.3762 31.7219C22.6826 33.2086 23.8178 34.0304 25.52 33.6797C26.5112 33.4754 27.2634 32.9835 27.7811 32.2254C28.2943 31.4458 28.599 30.4171 28.6691 29.1223L29.1051 21.7547C29.1677 20.6412 29.7544 19.8913 30.6163 19.7137C31.7152 19.4873 32.4828 20.1602 32.3962 21.5932ZM48.9855 24.9584L48.6574 29.3612C48.6017 30.1813 48.3464 30.7955 47.6766 31.3603C46.9467 31.9599 45.325 32.8107 43.3857 33.2103C39.9382 33.9207 35.8749 32.6241 34.9469 28.1207C33.979 23.4234 37.0683 18.2495 42.4982 17.1306C45.0193 16.6111 47.024 17.074 48.1021 17.7279C48.509 17.9585 48.9122 18.2797 49.0454 18.9262C49.2318 19.8311 48.6502 20.7147 47.7452 20.9012C47.2712 20.9989 46.9124 20.8931 46.6399 20.7696C45.4889 20.1981 44.4818 19.889 42.8657 20.222C39.6336 20.888 37.724 24.1567 38.3723 27.3026C38.8562 29.6512 40.842 30.5673 42.9752 30.1278C44.1387 29.888 44.9429 29.4303 45.5487 28.991L45.7536 26.3881L43.9005 26.7699C43.1033 26.9342 42.3281 26.4425 42.1638 25.6453C41.9995 24.848 42.5127 24.0684 43.31 23.9041L47.21 23.1005C48.309 22.874 49.081 23.5685 48.9855 24.9584ZM62.3 29.0433L53.8103 30.7927C52.7114 31.0191 51.9438 30.3462 52.0304 28.9132L52.7249 17.0224C52.7874 15.9088 53.3742 15.159 54.236 14.9814L62.3378 13.3119C63.1566 13.1432 63.9622 13.6735 64.131 14.4923C64.2997 15.3111 63.7649 16.0952 62.9461 16.2639L55.9432 17.7069L55.7594 20.9569L60.9954 19.878C61.8142 19.7093 62.6153 20.218 62.7841 21.0368C62.9528 21.8556 62.4136 22.6181 61.5948 22.7869L55.5615 24.0301L55.3568 27.3967L61.6917 26.0913C62.5105 25.9226 63.3161 26.4529 63.4848 27.2717C63.6535 28.0905 63.1188 28.8746 62.3 29.0433ZM62.0179 10.2332L60.5947 11.8292C60.0289 12.4624 59.4915 12.7978 58.8235 12.9354C58.2848 13.0464 57.8741 12.9065 57.7942 12.5186C57.7498 12.3031 57.8005 12.113 57.95 11.8576L59.2146 9.71014C59.501 9.24681 59.7576 8.857 60.2963 8.746C61.0936 8.58172 62.23 8.86418 62.3454 9.42441C62.3942 9.66143 62.3094 9.90354 62.0179 10.2332ZM76.5965 20.3695L77.1121 11.8623C77.1747 10.7488 77.7399 10.0034 78.6018 9.82579C79.7007 9.59935 80.4468 10.2767 80.3602 11.7097L79.6246 23.9459C79.5658 24.9688 79.147 25.6616 78.1558 25.8659L78.0912 25.8792C77.0354 26.0967 76.4941 25.759 75.9375 25.0202L70.1099 17.1238L69.5918 25.9459C69.5292 27.0595 68.964 27.8049 68.1021 27.9825C67.0032 28.2089 66.2571 27.5315 66.3437 26.0986L67.0584 13.9789C67.121 12.8654 67.6862 12.12 68.6774 11.9158L68.8282 11.8847C69.7978 11.6849 70.5033 12.0561 71.0383 12.7995L76.5965 20.3695ZM87.4521 10.2483L86.7247 22.4155C86.6622 23.529 86.0754 24.2789 85.2135 24.4565C84.1146 24.6829 83.347 24.01 83.4336 22.577L84.161 10.4098C84.2235 9.29631 84.8103 8.54646 85.6722 8.36886C86.7711 8.14242 87.5387 8.81535 87.4521 10.2483ZM100.807 21.1084L92.3177 22.8578C91.2188 23.0842 90.4512 22.4113 90.5378 20.9784L91.2322 9.08751C91.2948 7.97397 91.8815 7.22413 92.7434 7.04652L100.845 5.37706C101.664 5.20834 102.47 5.73866 102.638 6.55746C102.807 7.37626 102.272 8.16032 101.453 8.32904L94.4506 9.77206L94.2667 13.022L99.5027 11.9431C100.322 11.7744 101.123 12.2832 101.291 13.102C101.46 13.9208 100.921 14.6833 100.102 14.852L94.0689 16.0952L93.8641 19.4618L100.199 18.1564C101.018 17.9877 101.823 18.518 101.992 19.3368C102.161 20.1556 101.626 20.9397 100.807 21.1084ZM13.1589 60.6841L12.9548 64.1629C12.8922 65.2764 12.3055 66.0262 11.4436 66.2038C10.3447 66.4303 9.57707 65.7574 9.66365 64.3244L10.3746 52.2954C10.4371 51.1819 11.0239 50.432 11.8858 50.2544L15.9797 49.4108C18.2207 48.949 19.8526 49.1294 21.074 49.9334C21.9836 50.5322 22.6106 51.5036 22.8636 52.7318C23.1611 54.1755 22.9231 55.5273 22.2217 56.5928C21.5545 57.6063 20.6914 58.3233 19.289 59.039L21.7104 61.4152C22.0749 61.7669 22.2277 62.0724 22.2943 62.3956C22.503 63.4083 21.7432 64.0815 20.989 64.2369C20.041 64.4323 19.3444 64.1041 18.8233 63.5376L15.6368 60.1735L13.1589 60.6841ZM13.3523 57.5894L16.3043 56.9811C17.5971 56.7147 18.6294 56.165 19.1426 55.3854C19.4506 54.9176 19.581 54.3517 19.4523 53.7268C19.3457 53.2096 19.1194 52.8744 18.7296 52.6178C18.2358 52.2928 17.4588 52.2283 16.403 52.4458L13.6234 53.0186L13.3523 57.5894ZM33.3313 61.8284C29.1727 62.6853 25.8412 60.3619 25.0597 56.5696C24.1318 52.0662 26.8846 46.8942 32.293 45.7797C36.4516 44.9228 39.7831 47.2462 40.5645 51.0386C41.4925 55.5419 38.7397 60.714 33.3313 61.8284ZM33.0887 58.6888C36.2561 58.0361 37.6986 54.5717 37.1614 51.9644C36.6996 49.7235 35.0136 48.4088 32.5356 48.9194C29.3682 49.572 27.9257 53.0365 28.4629 55.6437C28.9247 57.8846 30.6107 59.1994 33.0887 58.6888ZM46.9197 49.3921L50.2595 48.7039C51.9618 48.3531 52.8546 47.5626 52.5971 46.3129C52.4372 45.5372 51.6925 45.0842 50.2273 45.3861L47.1029 46.0299L46.9197 49.3921ZM46.5342 55.8059L50.4343 55.0022C52.0934 54.6603 52.9767 53.7146 52.7369 52.551C52.5549 51.6676 51.7328 51.2754 50.3754 51.5552L46.7339 52.3055L46.5342 55.8059ZM50.5381 58.0132L45.0435 59.1454C43.9446 59.3719 43.177 58.6989 43.2636 57.266L43.958 45.3751C44.0206 44.2616 44.6073 43.5118 45.4692 43.3342L49.9295 42.4151C53.4848 41.6825 55.3826 43.0435 55.7999 45.0689C56.2128 47.0728 55.1864 48.632 53.336 49.4626C54.7056 49.7868 55.7584 50.5358 56.0781 52.0872C56.6331 54.7806 54.7183 57.1518 50.5381 58.0132ZM62.8615 41.8617L62.1341 54.0289C62.0716 55.1424 61.4848 55.8923 60.6229 56.0699C59.524 56.2963 58.7564 55.6234 58.843 54.1904L59.5704 42.0233C59.6329 40.9097 60.2197 40.1599 61.0815 39.9823C62.1805 39.7558 62.9481 40.4288 62.8615 41.8617ZM76.1834 47.0008L76.6991 38.4937C76.7617 37.3802 77.3269 36.6348 78.1888 36.4572C79.2877 36.2307 80.0337 36.9081 79.9471 38.341L79.2115 50.5773C79.1528 51.6002 78.734 52.293 77.7428 52.4972L77.6782 52.5105C76.6223 52.7281 76.081 52.3904 75.5245 51.6515L69.6969 43.7552L69.1787 52.5773C69.1162 53.6908 68.551 54.4362 67.6891 54.6138C66.5902 54.8403 65.8441 54.1629 65.9307 52.7299L66.6454 40.6103C66.708 39.4968 67.2732 38.7514 68.2643 38.5471L68.4152 38.516C69.3848 38.3162 70.0902 38.6875 70.6253 39.4308L76.1834 47.0008Z" fill="white"/>
</svg>
