<svg width="94" height="60" viewBox="0 0 94 60" fill="none" xmlns="http://www.w3.org/2000/svg">
<path d="M88.2474 18.6632L80.7986 20.0872C79.8344 20.2716 79.1691 19.6848 79.259 18.4519L79.9838 8.22123C80.0495 7.26313 80.5705 6.62323 81.3267 6.47866L88.4352 5.11968C89.1536 4.98233 89.8536 5.4467 89.9933 6.15327C90.1329 6.85985 89.6571 7.52971 88.9387 7.66706L82.7944 8.84171L82.6015 11.638L87.1955 10.7597C87.9139 10.6224 88.6103 11.0682 88.7499 11.7747C88.8896 12.4813 88.41 13.1326 87.6916 13.2699L82.3981 14.2819L82.1857 17.1784L87.744 16.1158C88.4624 15.9785 89.1624 16.4428 89.302 17.1494C89.4417 17.856 88.9658 18.5258 88.2474 18.6632Z" fill="#402047"/>
<path d="M76.6632 9.18399L75.9068 19.6523C75.8411 20.6103 75.3201 21.2502 74.5639 21.3948C73.5997 21.5792 72.9344 20.9924 73.0243 19.7595L73.7806 9.29124C73.8463 8.33315 74.3673 7.69324 75.1235 7.54867C76.0877 7.36434 76.753 7.95112 76.6632 9.18399Z" fill="#402047"/>
<path d="M67.061 17.793L67.596 10.4738C67.6617 9.51569 68.1638 8.8794 68.92 8.73483C69.8842 8.5505 70.5307 9.14089 70.4408 10.3738L69.6765 20.9014C69.615 21.7815 69.2416 22.3739 68.372 22.5402L68.3152 22.551C67.3889 22.7281 66.9184 22.4321 66.4384 21.7906L61.4147 14.9359L60.8744 22.5263C60.8087 23.4844 60.3066 24.1207 59.5504 24.2652C58.5862 24.4496 57.9398 23.8592 58.0297 22.6263L58.7744 12.1989C58.8401 11.2408 59.3422 10.6045 60.2119 10.4382L60.3442 10.4129C61.195 10.2503 61.8089 10.5767 62.2699 11.2219L67.061 17.793Z" fill="#402047"/>
<path d="M54.4607 25.1221L47.0119 26.5462C46.0477 26.7305 45.3824 26.1437 45.4723 24.9108L46.1971 14.6802C46.2628 13.7221 46.7838 13.0822 47.54 12.9376L54.6485 11.5786C55.3669 11.4413 56.0669 11.9056 56.2066 12.6122C56.3462 13.3188 55.8704 13.9886 55.152 14.126L49.0076 15.3006L48.8147 18.0969L53.4088 17.2186C54.1272 17.0813 54.8236 17.5271 54.9632 18.2337C55.1028 18.9402 54.6233 19.5915 53.9049 19.7288L48.6113 20.7408L48.399 23.6373L53.9573 22.5747C54.6757 22.4374 55.3757 22.9018 55.5153 23.6083C55.655 24.3149 55.1791 24.9848 54.4607 25.1221ZM54.3987 8.92484L53.1372 10.2852C52.6357 10.8249 52.162 11.1084 51.5759 11.2205C51.1032 11.3108 50.7451 11.1863 50.679 10.8517C50.6422 10.6657 50.6884 10.5025 50.8218 10.284L51.95 8.44745C52.2052 8.05131 52.4337 7.71819 52.9063 7.62783C53.6058 7.4941 54.5978 7.74828 54.6934 8.23172C54.7338 8.43626 54.6571 8.64388 54.3987 8.92484Z" fill="#402047"/>
<path d="M42.8461 21.4765L42.5155 25.2639C42.4587 25.9695 42.2292 26.4958 41.6374 26.9756C40.9924 27.4848 39.5645 28.2016 37.863 28.5269C34.8381 29.1052 31.2939 27.9495 30.5259 24.0634C29.7247 20.0099 32.48 15.5853 37.2442 14.6745C39.4561 14.2516 41.2065 14.6695 42.1438 15.2429C42.4977 15.4454 42.8475 15.7259 42.9577 16.2837C43.1121 17.0646 42.5942 17.8197 41.8002 17.9715C41.3843 18.051 41.0713 17.9565 40.8339 17.8475C39.832 17.3444 38.9534 17.0685 37.5355 17.3396C34.6996 17.8817 32.9959 20.6774 33.5324 23.3921C33.933 25.4189 35.6622 26.2268 37.5339 25.869C38.5548 25.6738 39.2632 25.2875 39.7979 24.9151L40.0028 22.6762L38.3769 22.987C37.6774 23.1207 37.0037 22.6899 36.8677 22.0019C36.7317 21.314 37.1887 20.6477 37.8882 20.514L41.3101 19.8598C42.2743 19.6755 42.9433 20.2808 42.8461 21.4765Z" fill="#402047"/>
<path d="M28.357 18.4187L27.8992 24.7391C27.7762 26.4993 27.3681 27.9088 26.6218 28.997C25.7536 30.2628 24.4045 31.0804 22.4383 31.4563C19.3756 32.0418 17.1653 30.7855 16.6177 28.015C16.4891 27.3642 16.4818 26.6324 16.5275 25.871L16.9291 20.1597C16.9948 19.2016 17.5158 18.5617 18.272 18.4171C19.2362 18.2328 19.9015 18.8195 19.8117 20.0524L19.4148 25.5892C19.3896 26.0572 19.3796 26.5029 19.4862 27.0421C19.7397 28.3251 20.7254 29.0436 22.2189 28.7581C23.0886 28.5918 23.7519 28.1756 24.2125 27.5279C24.6694 26.8617 24.9462 25.979 25.0203 24.8649L25.4745 18.526C25.5402 17.5679 26.0611 16.928 26.8174 16.7834C27.7816 16.5991 28.4469 17.1859 28.357 18.4187Z" fill="#402047"/>
<path d="M12.6986 33.1061L5.24978 34.5301C4.28559 34.7144 3.62027 34.1276 3.71014 32.8948L4.43497 22.6641C4.50067 21.706 5.02166 21.0661 5.77789 20.9215L12.8864 19.5625C13.6048 19.4252 14.3048 19.8896 14.4445 20.5961C14.5841 21.3027 14.1083 21.9726 13.3899 22.1099L7.24553 23.2846L7.05263 26.0809L11.6467 25.2026C12.3651 25.0652 13.0614 25.511 13.2011 26.2176C13.3407 26.9242 12.8612 27.5754 12.1428 27.7128L6.84923 28.7248L6.63689 31.6213L12.1951 30.5587C12.9136 30.4213 13.6136 30.8857 13.7532 31.5923C13.8928 32.2988 13.417 32.9687 12.6986 33.1061Z" fill="#402047"/>
<path d="M62.0952 38.7759L62.6302 31.4567C62.6959 30.4986 63.198 29.8623 63.9542 29.7177C64.9184 29.5334 65.5648 30.1238 65.475 31.3567L64.7107 41.8843C64.6492 42.7644 64.2758 43.3568 63.4062 43.5231L63.3494 43.5339C62.4231 43.711 61.9525 43.415 61.4726 42.7735L56.4489 35.9188L55.9086 43.5092C55.8429 44.4673 55.3408 45.1036 54.5846 45.2482C53.6204 45.4325 52.974 44.8421 53.0638 43.6092L53.8086 33.1818C53.8743 32.2237 54.3764 31.5874 55.2461 31.4211L55.3784 31.3958C56.2292 31.2332 56.8431 31.5596 57.3041 32.2048L62.0952 38.7759Z" fill="#402047"/>
<path d="M50.484 34.2226L49.7276 44.6908C49.6619 45.6489 49.1409 46.2888 48.3847 46.4334C47.4205 46.6177 46.7552 46.0309 46.8451 44.7981L47.6014 34.3298C47.6671 33.3717 48.1881 32.7318 48.9443 32.5872C49.9085 32.4029 50.5738 32.9897 50.484 34.2226Z" fill="#402047"/>
<path d="M36.4548 40.552L39.3852 39.9918C40.8787 39.7062 41.6681 39.0343 41.4549 37.9559C41.3227 37.2865 40.6752 36.8893 39.3896 37.135L36.6483 37.6591L36.4548 40.552ZM36.0543 46.0702L39.4762 45.416C40.932 45.1377 41.7145 44.332 41.5161 43.3279C41.3654 42.5656 40.6496 42.22 39.4586 42.4477L36.2635 43.0585L36.0543 46.0702ZM39.5375 48.0093L34.7166 48.931C33.7524 49.1153 33.0871 48.5285 33.1769 47.2957L33.9018 37.065C33.9675 36.1069 34.4885 35.467 35.2447 35.3224L39.1582 34.5742C42.2776 33.9779 43.9254 35.168 44.2709 36.9158C44.6126 38.6451 43.6988 39.9776 42.0708 40.6747C43.2665 40.9671 44.1808 41.6221 44.4454 42.9609C44.9047 45.2851 43.2052 47.3081 39.5375 48.0093Z" fill="#402047"/>
<path d="M24.4375 51.1273C20.7887 51.8248 17.8952 49.7923 17.2485 46.5197C16.4804 42.6336 18.941 38.2073 23.6863 37.3002C27.3351 36.6026 30.2286 38.6352 30.8753 41.9077C31.6434 45.7939 29.1828 50.2201 24.4375 51.1273ZM24.2559 48.4219C27.0351 47.8906 28.3319 44.9218 27.8872 42.6719C27.505 40.7382 26.042 39.5899 23.8679 40.0056C21.0887 40.5369 19.7919 43.5056 20.2366 45.7555C20.6188 47.6893 22.0818 48.8375 24.2559 48.4219Z" fill="#402047"/>
<path d="M6.79051 49.947L6.57764 52.9401C6.51194 53.8982 5.99095 54.5381 5.23472 54.6827C4.27053 54.867 3.6052 54.2802 3.69508 53.0474L4.43567 42.6979C4.50137 41.7398 5.02236 41.0999 5.77859 40.9553L9.37066 40.2686C11.3368 39.8927 12.7637 40.0638 13.825 40.7678C14.6153 41.2921 15.1546 42.1345 15.364 43.1944C15.6102 44.4402 15.3886 45.6018 14.7641 46.5123C14.1701 47.3784 13.4075 47.9873 12.1729 48.59L14.2691 50.6592C14.5847 50.9655 14.7155 51.23 14.7706 51.5089C14.9433 52.3828 14.2716 52.955 13.6099 53.0815C12.7781 53.2406 12.1715 52.9513 11.721 52.4585L8.96466 49.5314L6.79051 49.947ZM6.99024 47.2845L9.58031 46.7894C10.7147 46.5725 11.6237 46.1093 12.0806 45.443C12.3548 45.0433 12.4746 44.5572 12.368 44.018C12.2798 43.5718 12.085 43.281 11.7463 43.0563C11.3172 42.7716 10.6377 42.7086 9.71132 42.8857L7.27249 43.3519L6.99024 47.2845Z" fill="#402047"/>
</svg>
