<svg width="96" height="29" viewBox="0 0 96 29" fill="none" xmlns="http://www.w3.org/2000/svg">
<path d="M47.6807 8.88C48.3866 9.31046 48.9384 9.90217 49.3362 10.6553C49.734 11.4084 49.9329 12.2513 49.9329 13.1839C49.9329 14.1163 49.734 14.9589 49.3362 15.7121C48.9384 16.4652 48.3866 17.057 47.6807 17.4874C46.9743 17.9178 46.1825 18.1329 45.3054 18.1327C44.6365 18.1327 44.0233 18.0036 43.4655 17.7453C42.9056 17.4855 42.4138 17.1067 42.027 16.6374L42.0492 22.1569C42.0542 22.199 42.0493 22.2417 42.0349 22.2817C42.0205 22.3218 41.9967 22.3582 41.9656 22.3882C41.9346 22.4182 41.8968 22.441 41.8554 22.455C41.8139 22.469 41.7696 22.4736 41.7259 22.4688H39.9308C39.8902 22.4701 39.8499 22.4631 39.8124 22.4482C39.7749 22.4334 39.7411 22.411 39.7133 22.3826C39.6559 22.3208 39.6258 22.2397 39.6296 22.1569V8.83728C39.6259 8.75424 39.6559 8.67317 39.7133 8.61123C39.7411 8.58272 39.7749 8.56037 39.8124 8.54554C39.8499 8.53061 39.8902 8.52364 39.9308 8.52498H41.4034C41.5521 8.52498 41.6376 8.58245 41.6598 8.6974L41.8607 9.94525C42.2388 9.41388 42.7459 8.97984 43.3379 8.68113C43.9288 8.38358 44.5812 8.23476 45.2949 8.23476C46.18 8.23476 46.9753 8.44981 47.6807 8.88ZM46.2309 15.4968C46.646 15.2607 46.9898 14.9241 47.2285 14.5202C47.4671 14.1163 47.5922 13.6592 47.5913 13.1944C47.5961 12.7173 47.4691 12.2476 47.2234 11.8335C46.9852 11.4287 46.641 11.0914 46.2253 10.8553C45.8091 10.6162 45.3329 10.4916 44.8484 10.4952C44.4801 10.4926 44.115 10.5606 43.7743 10.6954C43.4335 10.8302 43.1239 11.029 42.8634 11.2803C42.6031 11.5315 42.3969 11.8302 42.2572 12.1591C42.1175 12.4878 42.0469 12.8402 42.0496 13.1954C42.0453 13.6671 42.1752 14.1307 42.4251 14.536C42.6708 14.9385 43.0229 15.2707 43.4452 15.4991C43.8767 15.7358 44.3653 15.8582 44.8615 15.8541C45.3431 15.8571 45.8166 15.7337 46.2309 15.4968Z" fill="#B36CF2"/>
<path d="M59.6559 9.30045C59.6542 9.36999 59.6308 9.43739 59.5887 9.49388L58.7526 10.742C58.7303 10.7859 58.6952 10.8224 58.6516 10.8473C58.608 10.8722 58.5579 10.8842 58.5074 10.8819C58.4789 10.8836 58.4503 10.8797 58.4235 10.8704C58.3966 10.8611 58.372 10.8467 58.3512 10.8279L58.273 10.7635C58.057 10.6019 57.8111 10.4814 57.5484 10.4083C57.2881 10.3318 57.0177 10.2921 56.7456 10.2903C56.3142 10.2866 55.8894 10.3923 55.5136 10.5968C55.1455 10.7941 54.8378 11.0816 54.6214 11.4301C54.4035 11.7771 54.2896 12.1757 54.2925 12.5815V17.5412C54.2925 17.7494 54.1886 17.8531 53.9805 17.8531H52.1962C51.9882 17.8531 51.8842 17.7494 51.8842 17.5412V8.81743C51.8819 8.77712 51.8882 8.73681 51.9026 8.69882C51.917 8.66093 51.9392 8.62616 51.9679 8.59684C52.0002 8.56851 52.038 8.54688 52.0792 8.53302C52.1204 8.51917 52.164 8.51354 52.2075 8.5164H53.6235C53.8017 8.5164 53.9058 8.58084 53.9359 8.70982L54.1363 9.76417C54.4746 9.29482 54.9236 8.90986 55.4464 8.641C55.9573 8.37008 56.5307 8.22769 57.1136 8.22689C57.5754 8.22457 58.034 8.30116 58.4683 8.45294C58.8718 8.58897 59.2393 8.8093 59.5445 9.09827C59.5792 9.12017 59.6076 9.1502 59.627 9.18551C59.6466 9.2209 59.6565 9.26041 59.6559 9.30045Z" fill="#B36CF2"/>
<path d="M66.8193 8.67532C67.4846 8.96947 68.0013 9.38921 68.3692 9.93435C68.7372 10.4795 68.9212 11.1214 68.9212 11.86V17.5302C68.9263 17.6165 68.8962 17.7014 68.8375 17.7668C68.8078 17.7959 68.7722 17.8186 68.7328 17.8335C68.6933 17.8483 68.6511 17.8548 68.6088 17.8526H67.2485C67.1914 17.852 67.1361 17.8341 67.0901 17.8016C67.0442 17.7692 67.0098 17.7236 66.992 17.6715L66.8249 16.7244C66.483 17.162 66.0294 17.5082 65.4645 17.7628C64.8995 18.0173 64.2194 18.1446 63.4241 18.1446C62.733 18.1446 62.1179 18.0228 61.5786 17.779C61.0394 17.5354 60.6194 17.1874 60.3185 16.7352C60.0181 16.2836 59.8679 15.7564 59.8679 15.1538C59.8679 14.2789 60.1578 13.619 60.7375 13.1741C61.3173 12.7292 62.1387 12.5033 63.2019 12.4962L66.5023 12.4854V12.0321C66.5023 11.4659 66.3127 11.0159 65.9335 10.6818C65.5542 10.3477 65.0711 10.181 64.4841 10.1818C64.0094 10.1833 63.5362 10.2355 63.0734 10.3376C62.5941 10.4417 62.1834 10.5867 61.8415 10.7724C61.754 10.8116 61.6592 10.8336 61.5628 10.8368C61.4066 10.8368 61.3065 10.7831 61.2625 10.6756L60.727 9.67496C60.6967 9.61454 60.6815 9.54813 60.6827 9.48109C60.6827 9.30912 60.7905 9.16575 61.006 9.05108C61.4446 8.79285 61.9816 8.59201 62.6172 8.44856C63.2323 8.30742 63.8623 8.2352 64.4946 8.23332C65.3791 8.23404 66.1539 8.38134 66.8193 8.67532ZM65.3027 16.0128C65.6539 15.8543 65.9558 15.6095 66.1783 15.3031C66.391 15.0099 66.504 14.6602 66.5016 14.3023V14.0658H63.5244C63.1301 14.0658 62.8254 14.1503 62.6101 14.3194C62.3948 14.4884 62.287 14.7233 62.2867 15.0241C62.2867 15.39 62.4614 15.6896 62.8106 15.9226C63.1597 16.1557 63.591 16.2722 64.1041 16.2722C64.5189 16.2755 64.929 16.1868 65.3027 16.0128Z" fill="#B36CF2"/>
<path d="M84.3314 9.30045C84.3296 9.3699 84.3064 9.4373 84.2646 9.49388L83.428 10.7421C83.4057 10.7859 83.3706 10.8225 83.3271 10.8474C83.2834 10.8722 83.2334 10.8842 83.1828 10.8819C83.1543 10.8836 83.1258 10.8797 83.0989 10.8704C83.0721 10.8611 83.0474 10.8467 83.0266 10.8279L82.9489 10.7635C82.7326 10.6019 82.4866 10.4815 82.2238 10.4083C81.9635 10.3318 81.6931 10.2921 81.421 10.2903C80.9897 10.2866 80.5649 10.3923 80.1891 10.5968C79.821 10.7941 79.5133 11.0816 79.297 11.4301C79.0789 11.7771 78.9651 12.1757 78.968 12.5815V17.5412C78.968 17.7494 78.864 17.8531 78.656 17.8531H76.8717C76.6636 17.8531 76.5597 17.7494 76.5597 17.5412V8.81744C76.5574 8.77712 76.5636 8.73681 76.578 8.69882C76.5924 8.66093 76.6147 8.62625 76.6434 8.59684C76.6757 8.5686 76.7136 8.54688 76.7547 8.53311C76.7959 8.51926 76.8395 8.51354 76.8829 8.5164H78.2992C78.4778 8.5164 78.5818 8.58084 78.6113 8.70982L78.8121 9.76417C79.1502 9.29473 79.5993 8.90968 80.1223 8.641C80.6329 8.37008 81.2062 8.2276 81.789 8.22689C82.2508 8.22457 82.7095 8.30108 83.1437 8.45294C83.5473 8.58897 83.9148 8.80939 84.2199 9.09827C84.2546 9.12017 84.283 9.1502 84.3025 9.18551C84.322 9.2209 84.3319 9.26041 84.3314 9.30045Z" fill="#B36CF2"/>
<path d="M95.2502 8.57932C95.2762 8.60051 95.2965 8.62705 95.3095 8.65682C95.3234 8.68658 95.3299 8.71894 95.328 8.75138C95.328 8.79634 95.316 8.8405 95.2947 8.88036L91.4483 17.5954L91.415 17.649L89.4408 22.1779C89.3657 22.3571 89.2394 22.4467 89.0619 22.4467H87.4004C87.1476 22.4467 87.0212 22.3607 87.0212 22.1888C87.0281 22.1076 87.0469 22.0278 87.0771 21.9518L89.0954 17.2287L85.4048 8.87964C85.3831 8.83987 85.3716 8.79563 85.3714 8.75067C85.3702 8.71822 85.3765 8.68595 85.39 8.6561C85.4034 8.62634 85.4236 8.59988 85.4491 8.57861C85.5014 8.5357 85.5681 8.51273 85.6368 8.51407H87.5769C87.6685 8.51255 87.7583 8.53892 87.8334 8.58942C87.9052 8.63653 87.9599 8.70419 87.9896 8.78293L90.3551 14.9158L92.7076 8.78293C92.7372 8.70419 92.7919 8.63653 92.8641 8.58942C92.9391 8.53892 93.0289 8.51255 93.1206 8.51407H95.0604C95.1299 8.51246 95.1975 8.5357 95.2502 8.57932Z" fill="#B36CF2"/>
<path d="M72.657 11.2083C73.5305 11.2083 74.2386 10.5251 74.2386 9.6822C74.2386 8.83942 73.5305 8.15619 72.657 8.15619C71.7835 8.15619 71.0754 8.83942 71.0754 9.6822C71.0754 10.5251 71.7835 11.2083 72.657 11.2083Z" fill="#B36CF2"/>
<path d="M73.469 12.6019H71.8168C71.568 12.6019 71.3663 12.7965 71.3663 13.0366V17.5126C71.3663 17.7527 71.568 17.9473 71.8168 17.9473H73.469C73.7178 17.9473 73.9196 17.7527 73.9196 17.5126V13.0366C73.9196 12.7965 73.7178 12.6019 73.469 12.6019Z" fill="#B36CF2"/>
<path fill-rule="evenodd" clip-rule="evenodd" d="M8.10232 0.00012207C3.62767 0.00012207 0.000244141 3.50166 0.000244141 7.82103V20.7255C0.000244141 25.0449 3.62767 28.5464 8.10232 28.5464H21.4707C25.9454 28.5464 29.5728 25.0449 29.5728 20.7255V7.82103C29.5728 3.50166 25.9454 0.00012207 21.4707 0.00012207H8.10232ZM9.35286 11.719C10.446 11.719 11.3321 10.8639 11.3321 9.8091C11.3321 8.75429 10.446 7.89923 9.35286 7.89923C8.25973 7.89923 7.37352 8.75429 7.37352 9.8091C7.37352 10.8639 8.25973 11.719 9.35286 11.719ZM13.6674 17.4963L12.4137 18.9073L11.7716 19.6955L11.4846 20.0348C11.4595 20.0625 11.4365 20.0904 11.4144 20.1173C11.3256 20.2253 11.2502 20.3171 11.1003 20.3171H11.0899C10.9261 20.3232 10.7614 20.3211 10.5971 20.3191C10.515 20.3181 10.433 20.3171 10.3513 20.3171H5.02578C4.74666 20.3171 4.49836 19.9817 4.68166 19.7385L9.06839 13.9185C9.11741 13.8538 9.16607 13.7889 9.21471 13.724C9.2811 13.6355 9.34744 13.5471 9.41459 13.4591C9.58619 13.2327 9.79717 13.0741 10.0699 12.9764C10.3154 12.888 10.6139 12.8862 10.8644 12.9608C11.1577 13.0483 11.3865 13.2228 11.5673 13.4585L11.6096 13.5145L14.0156 16.7074C14.1234 16.8504 14.0595 17.0536 13.9532 17.1733L13.6674 17.4963ZM13.1137 20.3169H23.2942C23.4496 20.3169 23.6052 20.3182 23.7609 20.3196C24.0728 20.3223 24.3855 20.3251 24.6969 20.3169H24.7165C24.8849 20.3169 25.0623 20.1972 25.1008 20.0345C25.1437 19.8527 25.0654 19.7099 24.9176 19.6003L19.3157 15.4456L18.7972 15.0945C18.4046 14.8682 17.9495 14.7496 17.5003 14.8564C17.063 14.9602 16.7458 15.2561 16.4523 15.5661C16.0062 16.0373 15.5756 16.5221 15.1458 17.0069C14.6671 17.5471 14.1915 18.0897 13.7189 18.6346C13.4355 18.96 13.1535 19.2858 12.8728 19.6123L12.8316 19.6605C12.7578 19.7458 12.714 19.8578 12.7183 19.9661C12.7437 20.1585 12.9032 20.3169 13.1137 20.3169Z" fill="#B36CF2"/>
</svg>
