<svg width="184" height="184" viewBox="0 0 184 184" fill="none" xmlns="http://www.w3.org/2000/svg">
<path d="M71.9592 10.091C82.0233 -3.18186 101.977 -3.18186 112.041 10.091C117.532 17.3331 126.504 21.0491 135.507 19.8112C152.009 17.5423 166.118 31.6515 163.849 48.1532C162.611 57.1571 166.328 66.1285 173.57 71.6198C186.842 81.684 186.842 101.637 173.57 111.701C166.328 117.193 162.611 126.164 163.849 135.168C166.118 151.67 152.009 165.779 135.507 163.51C126.504 162.272 117.532 165.988 112.041 173.23C101.977 186.503 82.0233 186.503 71.9592 173.23C66.4678 165.988 57.4964 162.272 48.4925 163.51C31.9908 165.779 17.8816 151.67 20.1505 135.168C21.3885 126.164 17.6724 117.193 10.4303 111.701C-2.8425 101.637 -2.8425 81.684 10.4303 71.6198C17.6724 66.1285 21.3885 57.1571 20.1505 48.1532C17.8816 31.6515 31.9908 17.5423 48.4925 19.8112C57.4964 21.0491 66.4678 17.3331 71.9592 10.091Z" fill="url(#paint0_radial_1595_5245)"/>
<defs>
<radialGradient id="paint0_radial_1595_5245" cx="0" cy="0" r="1" gradientUnits="userSpaceOnUse" gradientTransform="translate(92 91.6606) rotate(90) scale(108)">
<stop stop-color="#FF4800"/>
<stop offset="0.782173" stop-color="#FE90F4"/>
</radialGradient>
</defs>
</svg>
