<svg width="152" height="152" viewBox="0 0 152 152" fill="none" xmlns="http://www.w3.org/2000/svg">
<path d="M6.22735 60.7507C-15.2897 26.7979 27.1372 -15.6291 61.09 5.88801C69.9576 11.5077 76 19.1662 76 29.6031C76 19.1662 82.0423 11.5077 90.9099 5.88801C124.863 -15.6291 167.29 26.7979 145.773 60.7507C140.153 69.6183 132.494 75.6606 122.058 75.6606C132.494 75.6606 140.153 81.703 145.773 90.5706C167.29 124.523 124.863 166.95 90.9099 145.433C82.0423 139.814 76 132.155 76 121.718C76 132.155 69.9576 139.814 61.09 145.433C27.1372 166.95 -15.2897 124.523 6.22734 90.5706C11.8471 81.703 19.5055 75.6606 29.9424 75.6606C19.5055 75.6606 11.8471 69.6183 6.22735 60.7507Z" fill="url(#paint0_radial_1595_5474)"/>
<defs>
<radialGradient id="paint0_radial_1595_5474" cx="0" cy="0" r="1" gradientUnits="userSpaceOnUse" gradientTransform="translate(76 75.6606) rotate(45) scale(120.58)">
<stop offset="0.169275" stop-color="#9747FF"/>
<stop offset="0.83873" stop-color="#FE90F4"/>
<stop offset="1" stop-color="#9747FF"/>
</radialGradient>
</defs>
</svg>
