<svg width="234" height="234" viewBox="0 0 234 234" fill="none" xmlns="http://www.w3.org/2000/svg">
<path d="M91.3923 12.7721C104.252 -4.18763 129.748 -4.18764 142.608 12.7721C149.624 22.0259 161.088 26.7742 172.593 25.1923C193.678 22.2932 211.707 40.3216 208.808 61.4071C207.226 72.9121 211.974 84.3756 221.228 91.3923C238.188 104.252 238.188 129.748 221.228 142.608C211.974 149.624 207.226 161.088 208.808 172.593C211.707 193.678 193.678 211.707 172.593 208.808C161.088 207.226 149.624 211.974 142.608 221.228C129.748 238.188 104.252 238.188 91.3923 221.228C84.3755 211.974 72.9121 207.226 61.4071 208.808C40.3216 211.707 22.2932 193.678 25.1923 172.593C26.7742 161.088 22.0259 149.624 12.7721 142.608C-4.18764 129.748 -4.18763 104.252 12.7721 91.3923C22.0259 84.3755 26.7742 72.9121 25.1923 61.4071C22.2932 40.3216 40.3216 22.2932 61.4071 25.1923C72.9121 26.7742 84.3755 22.0259 91.3923 12.7721Z" fill="url(#paint0_radial_689_287)"/>
<defs>
<radialGradient id="paint0_radial_689_287" cx="0" cy="0" r="1" gradientUnits="userSpaceOnUse" gradientTransform="translate(117 117) rotate(90) scale(138)">
<stop stop-color="#FF4800"/>
<stop offset="0.782173" stop-color="#FE90F4"/>
</radialGradient>
</defs>
</svg>
