<svg width="256" height="256" viewBox="0 0 256 256" fill="none" xmlns="http://www.w3.org/2000/svg">
<path d="M58.2273 113.09C36.7103 79.1373 79.1372 36.7103 113.09 58.2274C121.958 63.8471 128 71.5056 128 81.9424C128 71.5056 134.042 63.8471 142.91 58.2274C176.863 36.7103 219.29 79.1373 197.773 113.09C192.153 121.958 184.494 128 174.058 128C184.494 128 192.153 134.042 197.773 142.91C219.29 176.863 176.863 219.29 142.91 197.773C134.042 192.153 128 184.494 128 174.058C128 184.494 121.958 192.153 113.09 197.773C79.1372 219.29 36.7103 176.863 58.2273 142.91C63.8471 134.042 71.5055 128 81.9424 128C71.5055 128 63.8471 121.958 58.2273 113.09Z" fill="url(#paint0_radial_1434_43797)"/>
<defs>
<radialGradient id="paint0_radial_1434_43797" cx="0" cy="0" r="1" gradientUnits="userSpaceOnUse" gradientTransform="translate(128 128) rotate(45) scale(120.58)">
<stop stop-color="#FE90F4"/>
<stop offset="0.59078" stop-color="#9747FF"/>
</radialGradient>
</defs>
</svg>
