<svg width="270" height="298" viewBox="0 0 270 298" fill="none" xmlns="http://www.w3.org/2000/svg">
<path d="M45.8458 115.948C18.3518 72.5643 72.564 18.352 115.948 45.8461C127.279 53.0268 135 62.8127 135 76.1486C135 62.8127 142.721 53.0268 154.051 45.8461C197.435 18.352 251.648 72.5643 224.154 115.948C216.973 127.279 207.187 135 193.851 135C207.187 135 216.973 142.721 224.154 154.052C251.648 197.436 197.435 251.648 154.051 224.154C142.721 216.973 135 207.187 135 193.851C135 207.187 127.279 216.973 115.948 224.154C72.564 251.648 18.3518 197.436 45.8458 154.052C53.0266 142.721 62.8124 135 76.1484 135C62.8124 135 53.0266 127.279 45.8458 115.948Z" fill="url(#paint0_radial_1068_22205)"/>
<defs>
<radialGradient id="paint0_radial_1068_22205" cx="0" cy="0" r="1" gradientUnits="userSpaceOnUse" gradientTransform="translate(135 135) rotate(45) scale(154.075)">
<stop stop-color="#FE90F4"/>
<stop offset="0.59078" stop-color="#9747FF"/>
</radialGradient>
</defs>
</svg>
