<svg width="194" height="194" viewBox="0 0 194 194" fill="none" xmlns="http://www.w3.org/2000/svg">
<path d="M77.9484 186.364C34.5643 213.858 -19.648 159.646 7.84608 116.262C15.0268 104.931 24.8127 97.2104 38.1486 97.2105C24.8127 97.2105 15.0268 89.4897 7.84607 78.1588C-19.648 34.7747 34.5643 -19.4375 77.9484 8.05652C89.2792 15.2373 97 25.0231 97 38.3591C97 25.0231 104.721 15.2373 116.052 8.05652C159.436 -19.4375 213.648 34.7747 186.154 78.1588C178.973 89.4897 169.187 97.2105 155.851 97.2105C169.187 97.2104 178.973 104.931 186.154 116.262C213.648 159.646 159.436 213.858 116.052 186.364C104.721 179.184 97 169.398 97 156.062C97 169.398 89.2792 179.184 77.9484 186.364Z" fill="url(#paint0_radial_689_304)"/>
<defs>
<radialGradient id="paint0_radial_689_304" cx="0" cy="0" r="1" gradientUnits="userSpaceOnUse" gradientTransform="translate(97 97.2105) rotate(-45) scale(154.075)">
<stop offset="0.161734" stop-color="#9747FF"/>
<stop offset="0.361428" stop-color="#FE90F4"/>
<stop offset="0.74956" stop-color="#9747FF"/>
</radialGradient>
</defs>
</svg>
