<svg width="180" height="180" viewBox="0 0 180 180" fill="none" xmlns="http://www.w3.org/2000/svg">
<path d="M84.4052 4.44125C86.3849 -0.668714 93.6151 -0.668709 95.5948 4.44125L102.876 23.2347C104.343 27.0211 109.068 28.2873 112.232 25.7417L127.934 13.1065C132.204 9.67103 138.465 13.2861 137.625 18.7014L134.533 38.6174C133.911 42.6299 137.37 46.0894 141.383 45.4666L161.299 42.3754C166.714 41.5349 170.329 47.7964 166.893 52.0659L154.258 67.768C151.713 70.9316 152.979 75.6574 156.765 77.1243L175.559 84.4052C180.669 86.3849 180.669 93.6151 175.559 95.5948L156.765 102.876C152.979 104.343 151.713 109.068 154.258 112.232L166.893 127.934C170.329 132.204 166.714 138.465 161.299 137.625L141.383 134.533C137.37 133.911 133.911 137.37 134.533 141.383L137.625 161.299C138.465 166.714 132.204 170.329 127.934 166.893L112.232 154.258C109.068 151.713 104.343 152.979 102.876 156.765L95.5948 175.559C93.6151 180.669 86.3849 180.669 84.4052 175.559L77.1243 156.765C75.6574 152.979 70.9316 151.713 67.768 154.258L52.0659 166.893C47.7964 170.329 41.5349 166.714 42.3754 161.299L45.4666 141.383C46.0894 137.37 42.6299 133.911 38.6174 134.533L18.7013 137.625C13.2861 138.465 9.67104 132.204 13.1065 127.934L25.7417 112.232C28.2873 109.068 27.021 104.343 23.2346 102.876L4.44125 95.5948C-0.668714 93.6151 -0.668709 86.3849 4.44125 84.4052L23.2347 77.1243C27.0211 75.6574 28.2873 70.9316 25.7417 67.768L13.1065 52.0659C9.67103 47.7964 13.2861 41.5349 18.7014 42.3754L38.6174 45.4666C42.6299 46.0894 46.0894 42.6299 45.4666 38.6174L42.3754 18.7013C41.5349 13.2861 47.7964 9.67104 52.0659 13.1065L67.768 25.7417C70.9316 28.2873 75.6574 27.021 77.1243 23.2346L84.4052 4.44125Z" fill="url(#paint0_radial_801_2079)"/>
<defs>
<radialGradient id="paint0_radial_801_2079" cx="0" cy="0" r="1" gradientUnits="userSpaceOnUse" gradientTransform="translate(90 90) rotate(-90) scale(100)">
<stop stop-color="#FAA82A"/>
<stop offset="0.499682" stop-color="#FF4800"/>
</radialGradient>
</defs>
</svg>
