<svg width="107" height="107" viewBox="0 0 107 107" fill="none" xmlns="http://www.w3.org/2000/svg">
<path d="M36.6432 4.24747C37.0036 0.917999 41.2715 -0.225577 43.2483 2.47765L50.5186 12.4196C51.9834 14.4226 54.9732 14.4226 56.438 12.4196L63.7084 2.47764C65.6852 -0.225584 69.9531 0.918004 70.3135 4.24748L71.6388 16.4926C71.9058 18.9597 74.4951 20.4546 76.7652 19.4523L88.0324 14.4775C91.096 13.1249 94.2203 16.2492 92.8677 19.3128L87.8929 30.58C86.8906 32.8501 88.3855 35.4394 90.8526 35.7064L103.098 37.0317C106.427 37.3921 107.571 41.66 104.868 43.6368L94.9256 50.9072C92.9226 52.3719 92.9226 55.3618 94.9256 56.8266L104.868 64.0969C107.571 66.0737 106.427 70.3416 103.098 70.702L90.8526 72.0273C88.3855 72.2943 86.8906 74.8836 87.8929 77.1537L92.8677 88.421C94.2203 91.4845 91.096 94.6089 88.0324 93.2562L76.7652 88.2814C74.4951 87.2791 71.9058 88.7741 71.6388 91.2411L70.3135 103.486C69.9531 106.816 65.6852 107.959 63.7084 105.256L56.438 95.3142C54.9733 93.3111 51.9834 93.3111 50.5186 95.3142L43.2483 105.256C41.2715 107.959 37.0036 106.816 36.6432 103.486L35.3179 91.2411C35.0508 88.774 32.4616 87.2791 30.1915 88.2814L18.9242 93.2562C15.8607 94.6089 12.7363 91.4845 14.089 88.421L19.0638 77.1537C20.0661 74.8836 18.5711 72.2943 16.1041 72.0273L3.85894 70.702C0.529467 70.3416 -0.614113 66.0737 2.08911 64.0969L12.031 56.8266C14.0341 55.3618 14.0341 52.3719 12.031 50.9072L2.08911 43.6368C-0.614118 41.66 0.529468 37.3921 3.85894 37.0317L16.1041 35.7064C18.5711 35.4394 20.0661 32.8501 19.0638 30.58L14.089 19.3128C12.7363 16.2492 15.8607 13.1249 18.9242 14.4775L30.1915 19.4523C32.4616 20.4546 35.0508 18.9597 35.3179 16.4926L36.6432 4.24747Z" fill="url(#paint0_radial_1595_5430)"/>
<defs>
<radialGradient id="paint0_radial_1595_5430" cx="0" cy="0" r="1" gradientUnits="userSpaceOnUse" gradientTransform="translate(53.4783 53.8669) rotate(-105) scale(61.1111)">
<stop stop-color="#FAA82A"/>
<stop offset="0.499682" stop-color="#FF4800"/>
</radialGradient>
</defs>
</svg>
