<svg width="234" height="234" viewBox="0 0 234 234" fill="none" xmlns="http://www.w3.org/2000/svg">
<path d="M12.7721 142.608C-4.18763 129.748 -4.18764 104.252 12.7721 91.3925C22.0259 84.3758 26.7742 72.9124 25.1923 61.4074C22.2932 40.3218 40.3216 22.2934 61.4071 25.1926C72.9121 26.7744 84.3756 22.0261 91.3923 12.7723C104.252 -4.18741 129.748 -4.18738 142.608 12.7723C149.624 22.0261 161.088 26.7744 172.593 25.1926C193.678 22.2934 211.707 40.3218 208.808 61.4074C207.226 72.9124 211.974 84.3758 221.228 91.3925C238.188 104.252 238.188 129.748 221.228 142.608C211.974 149.625 207.226 161.088 208.808 172.593C211.707 193.679 193.678 211.707 172.593 208.808C161.088 207.226 149.624 211.974 142.608 221.228C129.748 238.188 104.252 238.188 91.3923 221.228C84.3755 211.974 72.9121 207.226 61.4071 208.808C40.3216 211.707 22.2932 193.679 25.1923 172.593C26.7742 161.088 22.0259 149.625 12.7721 142.608Z" fill="url(#paint0_radial_689_292)"/>
<defs>
<radialGradient id="paint0_radial_689_292" cx="0" cy="0" r="1" gradientUnits="userSpaceOnUse" gradientTransform="translate(117 117) rotate(0.127534) scale(192.616)">
<stop offset="0.0479247" stop-color="#FE90F4"/>
<stop offset="0.33" stop-color="#FF4800"/>
<stop offset="0.588372" stop-color="#FE90F4"/>
</radialGradient>
</defs>
</svg>
