<svg width="231" height="230" viewBox="0 0 231 230" fill="none" xmlns="http://www.w3.org/2000/svg">
<path d="M110.405 9.44124C112.385 4.33128 119.615 4.33129 121.595 9.44125L132.044 36.4117C133.511 40.1981 138.236 41.4644 141.4 38.9187L163.934 20.786C168.204 17.3505 174.465 20.9656 173.625 26.3808L169.188 54.9624C168.566 58.975 172.025 62.4345 176.038 61.8117L204.619 57.3754C210.034 56.5349 213.649 62.7964 210.214 67.0659L192.081 89.6001C189.536 92.7637 190.802 97.4894 194.588 98.9564L221.559 109.405C226.669 111.385 226.669 118.615 221.559 120.595L194.588 131.044C190.802 132.511 189.536 137.236 192.081 140.4L210.214 162.934C213.649 167.204 210.034 173.465 204.619 172.625L176.038 168.188C172.025 167.566 168.566 171.025 169.188 175.038L173.625 203.619C174.465 209.034 168.204 212.649 163.934 209.214L141.4 191.081C138.236 188.536 133.511 189.802 132.044 193.588L121.595 220.559C119.615 225.669 112.385 225.669 110.405 220.559L99.9564 193.588C98.4894 189.802 93.7637 188.536 90.6001 191.081L68.0659 209.214C63.7964 212.649 57.5349 209.034 58.3754 203.619L62.8117 175.038C63.4345 171.025 59.975 167.566 55.9624 168.188L27.3808 172.625C21.9656 173.465 18.3505 167.204 21.786 162.934L39.9187 140.4C42.4644 137.236 41.1981 132.511 37.4117 131.044L10.4412 120.595C5.33128 118.615 5.33129 111.385 10.4412 109.405L37.4117 98.9564C41.1981 97.4894 42.4644 92.7637 39.9187 89.6001L21.786 67.0659C18.3505 62.7964 21.9656 56.5349 27.3808 57.3754L55.9624 61.8117C59.975 62.4345 63.4345 58.975 62.8117 54.9624L58.3754 26.3808C57.5349 20.9656 63.7964 17.3505 68.0659 20.786L90.6001 38.9187C93.7637 41.4644 98.4894 40.1981 99.9564 36.4117L110.405 9.44124Z" fill="url(#paint0_radial_743_27223)"/>
<path d="M109.524 122.748C107.423 124.555 104.994 125.459 102.237 125.459C99.48 125.459 97.2995 124.555 95.6951 122.748C94.1134 120.94 93.5145 118.692 93.8987 116.003L95.8985 101.665H100.576L98.5762 115.935C98.3728 117.358 98.6778 118.556 99.4913 119.528C100.305 120.477 101.435 120.951 102.881 120.951C104.327 120.951 105.592 120.477 106.677 119.528C107.762 118.556 108.406 117.358 108.609 115.935L110.609 101.665H115.286L113.286 116.003C112.902 118.692 111.648 120.94 109.524 122.748ZM134.021 118.579C134.835 119.957 135.964 120.646 137.411 120.646H138.529L137.919 125.052H136.292C133.287 125.052 131.14 123.81 129.852 121.324L127.039 116.511L119.819 125.052H114.091L124.225 113.291L117.514 101.665H123.276L127.988 110.071L135.004 101.665H140.732L130.801 113.291L134.021 118.579Z" fill="white"/>
<defs>
<radialGradient id="paint0_radial_743_27223" cx="0" cy="0" r="1" gradientUnits="userSpaceOnUse" gradientTransform="translate(116 115) rotate(-90) scale(120)">
<stop stop-color="#FAA82A"/>
<stop offset="0.499682" stop-color="#FF4800"/>
</radialGradient>
</defs>
</svg>
