<svg width="231" height="230" viewBox="0 0 231 230" fill="none" xmlns="http://www.w3.org/2000/svg">
<path d="M134.552 25.8461C177.936 -1.64797 232.148 52.5643 204.654 95.9484C197.473 107.279 187.687 115 174.351 115C187.687 115 197.473 122.721 204.654 134.052C232.148 177.436 177.936 231.648 134.552 204.154C123.221 196.973 115.5 187.187 115.5 173.851C115.5 187.187 107.779 196.973 96.4484 204.154C53.0643 231.648 -1.14797 177.436 26.3461 134.052C33.5268 122.721 43.3127 115 56.6486 115C43.3127 115 33.5268 107.279 26.3461 95.9484C-1.14797 52.5643 53.0643 -1.64797 96.4484 25.8461C107.779 33.0268 115.5 42.8127 115.5 56.1486C115.5 42.8127 123.221 33.0268 134.552 25.8461Z" fill="url(#paint0_radial_743_27238)"/>
<path d="M117.29 122.695C115.189 124.503 112.76 125.407 110.003 125.407C107.246 125.407 105.066 124.503 103.461 122.695C101.879 120.887 101.281 118.639 101.665 115.95L103.665 101.613H108.342L106.342 115.882C106.139 117.306 106.444 118.504 107.257 119.475C108.071 120.424 109.201 120.899 110.647 120.899C112.093 120.899 113.358 120.424 114.443 119.475C115.528 118.504 116.172 117.306 116.375 115.882L118.375 101.613H123.052L121.053 115.95C120.668 118.639 119.414 120.887 117.29 122.695ZM124.054 125L127.342 101.613H132.019L128.731 125H124.054Z" fill="white"/>
<defs>
<radialGradient id="paint0_radial_743_27238" cx="0" cy="0" r="1" gradientUnits="userSpaceOnUse" gradientTransform="translate(115.5 115) rotate(135) scale(154.075)">
<stop stop-color="#FE90F4"/>
<stop offset="0.59078" stop-color="#9747FF"/>
</radialGradient>
</defs>
</svg>
